<svg  xmlns="http://www.w3.org/2000/svg" viewBox="11.796240234375006 15.200640869140628 476.40751953125 119.59871826171874" style="background: transparent;" preserveAspectRatio="xMidYMid"><defs><filter id="editing-vintage" x="-100%" y="-100%" width="300%" height="300%"><feConvolveMatrix in="SourceGraphic" result="extrude" order="4,4" divisor="1" kernelMatrix="1,0,0,0,0,1,0,0,0,0,1,0,0,0,0,1"> </feConvolveMatrix><feFlood flood-color="#900" result="flood-extrude"></feFlood><feComposite operator="in" in="flood-extrude" in2="extrude" result="extrude-color"></feComposite><feOffset dx="2" dy="2" in="extrude-color" result="extrude-offset"></feOffset><feColorMatrix in="SourceGraphic" result="stroke" type="matrix" values="0 0 0 0 0 0 0 0 0 0 0 0 0 0 0 0 1 0 0 0 "></feColorMatrix><feColorMatrix in="SourceGraphic" result="fill" type="matrix" values="0 0 0 0 0 0 0 0 0 0 0 0 0 0 0 1 0 0 1 0 "></feColorMatrix><feConvolveMatrix in="stroke" result="inner-shadow" order="5,5" divisor="1" kernelMatrix="1 0 0 0 0 0 1 0 0 0 0 0 1 0 0 0 0 0 1 0 0 0 0 0 1 "></feConvolveMatrix><feOffset dx="1" dy="1" in="inner-shadow" result="offset"></feOffset><feComposite operator="in" in="offset" in2="SourceAlpha" result="comp"></feComposite><feFlood flood-color="#000" result="flood3"></feFlood><feComposite operator="in" in="flood3" in2="comp" result="comp2"></feComposite><feColorMatrix in="comp2" result="comp3" type="matrix" values="1 0 0 0 0 0 1 0 0 0 0 0 1 0 0 0 0 0 0.5 0 "></feColorMatrix><feFlood flood-color="#f00" result="flood1"></feFlood><feComposite operator="in" in="flood1" in2="fill" result="fill2"></feComposite><feFlood flood-color="#fff" result="flood2"></feFlood><feComposite operator="in" in="flood2" in2="stroke" result="stroke2"></feComposite><feMerge result="obj"><feMergeNode in="extrude-offset"></feMergeNode><feMergeNode in="fill2"></feMergeNode><feMergeNode in="comp3"></feMergeNode></feMerge><feConvolveMatrix in="SourceAlpha" result="shadow" order="4,4" divisor="1" kernelMatrix="1,0,0,0,0,1,0,0,0,0,1,0,0,0,0,1"></feConvolveMatrix><feOffset dx="6" dy="6" in="shadow" result="shadow-offset"></feOffset><feFlood flood-color="#444444" result="flood-shadow"></feFlood><feComposite operator="in" in="flood-shadow" in2="shadow-offset" result="shadow-color"></feComposite><feMerge><feMergeNode in="shadow-color"></feMergeNode><feMergeNode in="obj"></feMergeNode></feMerge></filter></defs><g transform="translate(-4,-4)"><g filter="url(#editing-vintage)"><g transform="translate(81.80436885356903, 96.80781173706055)"><path d="M33.96-13.04L33.96-13.04L33.96-13.04Q35.59-11.84 35.59-9.29L35.59-9.29L35.59-9.29Q35.59-6.74 34.49-4.95L34.49-4.95L34.49-4.95Q33.39-3.15 31.25-1.76L31.25-1.76L31.25-1.76Q26.65 1.20 18.62 1.20L18.62 1.20L18.62 1.20Q10.58 1.20 6.21-2.99L6.21-2.99L6.21-2.99Q1.83-7.18 1.83-14.62L1.83-14.62L1.83-14.62Q1.83-25.14 7.31-33.14L7.31-33.14L7.31-33.14Q11.47-39.06 18.90-41.58L18.90-41.58L18.90-41.58Q22.74-42.84 26.52-42.84L26.52-42.84L26.52-42.84Q30.30-42.84 32.63-42.34L32.63-42.34L32.63-42.34Q34.97-41.83 36.73-40.82L36.73-40.82L36.73-40.82Q40.57-38.62 40.57-35.09L40.57-35.09L40.57-35.09Q40.57-31.88 37.55-29.48L37.55-29.48L37.55-29.48Q34.78-27.34 32.51-27.34L32.51-27.34L32.51-27.34Q30.24-27.34 29.30-27.66L29.30-27.66L29.30-27.66Q29.55-29.93 29.55-31.41L29.55-31.41L29.55-31.41Q29.55-32.89 29.48-33.96L29.48-33.96L29.48-33.96Q29.42-35.03 29.11-36.04L29.11-36.04L29.11-36.04Q28.48-38.37 26.55-38.37L26.55-38.37L26.55-38.37Q24.63-38.37 22.71-36.57L22.71-36.57L22.71-36.57Q20.79-34.78 19.15-31.75L19.15-31.75L19.15-31.75Q15.44-24.89 15.44-16.76L15.44-16.76L15.44-16.76Q15.44-12.85 17.64-10.62L17.64-10.62L17.64-10.62Q19.84-8.38 24.57-8.38L24.57-8.38L24.57-8.38Q28.10-8.38 31.44-10.71L31.44-10.71L31.44-10.71Q32.89-11.72 33.96-13.04ZM54.56 1.26L54.56 1.26L54.56 1.26Q40.70 1.26 40.70-11.78L40.70-11.78L40.70-11.78Q40.70-21.04 45.80-27.03L45.80-27.03L45.80-27.03Q51.22-33.39 60.61-33.39L60.61-33.39L60.61-33.39Q67.41-33.39 70.88-30.24L70.88-30.24L70.88-30.24Q74.34-27.09 74.34-20.48L74.34-20.48L74.34-20.48Q74.34-10.39 68.92-4.54L68.92-4.54L68.92-4.54Q63.63 1.26 54.56 1.26ZM56.20-26.14L56.20-26.14L56.20-26.14Q55.44-24.44 54.84-21.89L54.84-21.89L54.84-21.89Q54.24-19.34 53.49-15.31L53.49-15.31L53.49-15.31Q52.73-11.28 52.73-6.30L52.73-6.30L52.73-6.30Q52.73-4.66 53.27-3.59L53.27-3.59L53.27-3.59Q53.80-2.52 55.25-2.52L55.25-2.52L55.25-2.52Q56.70-2.52 57.61-3.21L57.61-3.21L57.61-3.21Q58.53-3.91 59.22-5.54L59.22-5.54L59.22-5.54Q60.48-8.44 61.49-13.83L61.49-13.83L61.49-13.83Q62.50-19.21 62.59-21.55L62.59-21.55L62.59-21.55Q62.69-23.88 62.69-25.61L62.69-25.61L62.69-25.61Q62.69-27.34 62.18-28.48L62.18-28.48L62.18-28.48Q61.68-29.61 60.26-29.61L60.26-29.61L60.26-29.61Q58.84-29.61 57.90-28.73L57.90-28.73L57.90-28.73Q56.95-27.85 56.20-26.14ZM104.71 1.26L104.71 1.26L104.71 1.26Q97.08 1.26 97.08-4.66L97.08-4.66L97.08-4.66Q97.15-6.30 97.65-9.07L97.65-9.07L98.78-14.87L98.78-14.87Q100.48-23.06 100.48-24.89L100.48-24.89L100.48-24.89Q100.48-28.54 98.34-28.54L98.34-28.54L98.34-28.54Q94.75-28.54 92.86-19.15L92.86-19.15L89.14 0L76.48 1.26L83.03-32.19L93.37-33.39L92.36-27.22L92.36-27.22Q95.32-33.39 104.39-33.39L104.39-33.39L104.39-33.39Q108.80-33.39 110.66-31.53L110.66-31.53L110.66-31.53Q112.52-29.67 112.52-25.52L112.52-25.52L112.52-25.52Q112.52-21.61 110.50-12.47L110.50-12.47L110.50-12.47Q109.56-8.38 109.56-6.84L109.56-6.84L109.56-6.84Q109.56-5.29 110.41-4.41L110.41-4.41L110.41-4.41Q111.26-3.53 112.52-3.40L112.52-3.40L112.52-3.40Q111.89-1.26 109.71 0L109.71 0L109.71 0Q107.54 1.26 104.71 1.26ZM118.57-6.30L118.57-6.30L118.57-6.30Q118.57-8.00 119.45-12.29L119.45-12.29L122.79-29.30L119.07-29.30L119.32-31.18L119.32-31.18Q126.88-33.45 134.19-39.00L134.19-39.00L137.21-39.00L135.70-32.13L140.62-32.13L140.05-29.30L135.20-29.30L131.98-12.29L131.98-12.29Q131.17-8.38 131.17-7.06L131.17-7.06L131.17-7.06Q131.17-4.03 133.81-3.40L133.81-3.40L133.81-3.40Q133.18-1.26 130.91 0L130.91 0L130.91 0Q128.65 1.26 125.43 1.26L125.43 1.26L125.43 1.26Q122.22 1.26 120.39-0.76L120.39-0.76L120.39-0.76Q118.57-2.77 118.57-6.30ZM142.79-1.89L142.79-1.89L142.79-1.89Q141.31-3.53 140.65-6.11L140.65-6.11L140.65-6.11Q139.99-8.69 139.99-12.92L139.99-12.92L139.99-12.92Q139.99-17.14 141.43-20.98L141.43-20.98L141.43-20.98Q142.88-24.82 145.53-27.59L145.53-27.59L145.53-27.59Q150.95-33.39 159.89-33.39L159.89-33.39L159.89-33.39Q163.11-33.39 165.44-32.32L165.44-32.32L176.21-33.39L171.55-8.82L171.55-8.82Q171.36-8.06 171.36-6.68L171.36-6.68L171.36-6.68Q171.36-5.29 172.21-4.41L172.21-4.41L172.21-4.41Q173.06-3.53 174.32-3.40L174.32-3.40L174.32-3.40Q173.69-1.26 171.39 0L171.39 0L171.39 0Q169.09 1.26 166.51 1.26L166.51 1.26L166.51 1.26Q163.93 1.26 162.19 0.28L162.19 0.28L162.19 0.28Q160.46-0.69 159.96-2.33L159.96-2.33L159.96-2.33Q158.95-0.76 156.81 0.25L156.81 0.25L156.81 0.25Q154.66 1.26 151.80 1.26L151.80 1.26L151.80 1.26Q148.93 1.26 146.60 0.50L146.60 0.50L146.60 0.50Q144.27-0.25 142.79-1.89ZM156.08-27.47L156.08-27.47L156.08-27.47Q155.36-26.33 154.73-24.41L154.73-24.41L154.73-24.41Q154.10-22.49 153.06-17.36L153.06-17.36L153.06-17.36Q152.02-12.22 152.02-8.57L152.02-8.57L152.02-8.57Q152.02-4.91 152.59-3.84L152.59-3.84L152.59-3.84Q153.15-2.77 154.16-2.77L154.16-2.77L154.16-2.77Q156.18-2.77 157.66-4.69L157.66-4.69L157.66-4.69Q159.14-6.62 159.70-10.02L159.70-10.02L163.04-28.48L163.04-28.48Q161.72-29.61 160.18-29.61L160.18-29.61L160.18-29.61Q158.63-29.61 157.72-29.11L157.72-29.11L157.72-29.11Q156.81-28.60 156.08-27.47ZM210.29-26.21L210.29-26.21L210.29-26.21Q210.29-23.56 208.09-21.92L208.09-21.92L208.09-21.92Q205.88-20.29 202.29-20.29L202.29-20.29L202.29-20.29Q200.78-20.29 199.90-20.73L199.90-20.73L199.90-20.73Q200.59-22.36 200.81-24.41L200.81-24.41L200.81-24.41Q201.03-26.46 201.03-27.03L201.03-27.03L201.03-27.03Q201.03-29.67 199.21-29.67L199.21-29.67L199.21-29.67Q197.95-29.67 196.53-28.10L196.53-28.10L196.53-28.10Q195.11-26.52 193.91-24.07L193.91-24.07L193.91-24.07Q191.27-18.40 191.27-12.66L191.27-12.66L191.27-12.66Q191.27-9.51 192.46-8.10L192.46-8.10L192.46-8.10Q193.66-6.68 196.31-6.68L196.31-6.68L196.31-6.68Q199.96-6.68 202.86-9.70L202.86-9.70L202.86-9.70Q203.68-10.65 204.12-11.72L204.12-11.72L204.12-11.72Q206.51-10.46 206.51-6.99L206.51-6.99L206.51-6.99Q206.51-3.46 202.61-1.13L202.61-1.13L202.61-1.13Q198.58 1.26 192.15 1.26L192.15 1.26L192.15 1.26Q179.36 1.26 179.36-12.29L179.36-12.29L179.36-12.29Q179.36-22.18 184.97-27.85L184.97-27.85L184.97-27.85Q190.39-33.39 200.34-33.39L200.34-33.39L200.34-33.39Q210.29-33.39 210.29-26.21ZM213.00-6.30L213.00-6.30L213.00-6.30Q213.00-8.00 213.88-12.29L213.88-12.29L217.22-29.30L213.51-29.30L213.76-31.18L213.76-31.18Q221.32-33.45 228.63-39.00L228.63-39.00L231.65-39.00L230.14-32.13L235.05-32.13L234.49-29.30L229.63-29.30L226.42-12.29L226.42-12.29Q225.60-8.38 225.60-7.06L225.60-7.06L225.60-7.06Q225.60-4.03 228.25-3.40L228.25-3.40L228.25-3.40Q227.62-1.26 225.35 0L225.35 0L225.35 0Q223.08 1.26 219.87 1.26L219.87 1.26L219.87 1.26Q216.66 1.26 214.83-0.76L214.83-0.76L214.83-0.76Q213.00-2.77 213.00-6.30ZM253.07 0L245.83 0L257.23-41.58L270.40-41.58L273.29-17.83L285.01-41.58L296.04-41.58L297.17-10.46L297.17-10.46Q297.42-4.28 300.45-2.39L300.45-2.39L300.45-2.39Q299.75-1.13 297.74 0.06L297.74 0.06L297.74 0.06Q295.72 1.26 293.04 1.26L293.04 1.26L293.04 1.26Q290.37 1.26 288.79 0.50L288.79 0.50L288.79 0.50Q287.22-0.25 286.33-1.51L286.33-1.51L286.33-1.51Q284.76-3.78 284.76-8.13L284.76-8.13L284.76-27.59L272.35 0L264.54 0L260.13-28.29L253.07 0ZM328.67-10.65L328.67-10.65L328.67-10.65Q330.25-9.58 330.25-7.21L330.25-7.21L330.25-7.21Q330.25-4.85 329.05-3.34L329.05-3.34L329.05-3.34Q327.85-1.83 325.90-0.82L325.90-0.82L325.90-0.82Q321.87 1.26 317.52 1.26L317.52 1.26L317.52 1.26Q313.17 1.26 310.62 0.32L310.62 0.32L310.62 0.32Q308.07-0.63 306.37-2.39L306.37-2.39L306.37-2.39Q303.03-5.73 303.03-11.84L303.03-11.84L303.03-11.84Q303.03-21.36 308.20-27.15L308.20-27.15L308.20-27.15Q313.74-33.39 323.38-33.39L323.38-33.39L323.38-33.39Q329.36-33.39 332.32-30.87L332.32-30.87L332.32-30.87Q334.53-28.98 334.53-25.89L334.53-25.89L334.53-25.89Q334.53-14.80 315.38-14.80L315.38-14.80L315.38-14.80Q315.13-13.17 315.13-11.78L315.13-11.78L315.13-11.78Q315.13-8.88 316.42-7.78L316.42-7.78L316.42-7.78Q317.71-6.68 320.10-6.68L320.10-6.68L320.10-6.68Q322.50-6.68 325.05-7.78L325.05-7.78L325.05-7.78Q327.60-8.88 328.67-10.65ZM315.82-17.51L315.82-17.51L315.82-17.51Q320.29-17.51 322.88-20.29L322.88-20.29L322.88-20.29Q325.46-22.93 325.46-27.15L325.46-27.15L325.46-27.15Q325.46-28.60 324.92-29.39L324.92-29.39L324.92-29.39Q324.39-30.18 323.32-30.18L323.32-30.18L323.32-30.18Q322.25-30.18 321.33-29.77L321.33-29.77L321.33-29.77Q320.42-29.36 319.47-27.97L319.47-27.97L319.47-27.97Q317.14-24.82 315.82-17.51Z" fill="#f00" stroke="#0f0" stroke-width="1.8"></path></g></g><g><g transform="translate(81.81218135356903, 97.03437423706055)"><path d="M33.96-13.04L33.96-13.04L33.96-13.04Q35.59-11.84 35.59-9.29L35.59-9.29L35.59-9.29Q35.59-6.74 34.49-4.95L34.49-4.95L34.49-4.95Q33.39-3.15 31.25-1.76L31.25-1.76L31.25-1.76Q26.65 1.20 18.62 1.20L18.62 1.20L18.62 1.20Q10.58 1.20 6.21-2.99L6.21-2.99L6.21-2.99Q1.83-7.18 1.83-14.62L1.83-14.62L1.83-14.62Q1.83-25.14 7.31-33.14L7.31-33.14L7.31-33.14Q11.47-39.06 18.90-41.58L18.90-41.58L18.90-41.58Q22.74-42.84 26.52-42.84L26.52-42.84L26.52-42.84Q30.30-42.84 32.63-42.34L32.63-42.34L32.63-42.34Q34.97-41.83 36.73-40.82L36.73-40.82L36.73-40.82Q40.57-38.62 40.57-35.09L40.57-35.09L40.57-35.09Q40.57-31.88 37.55-29.48L37.55-29.48L37.55-29.48Q34.78-27.34 32.51-27.34L32.51-27.34L32.51-27.34Q30.24-27.34 29.30-27.66L29.30-27.66L29.30-27.66Q29.55-29.93 29.55-31.41L29.55-31.41L29.55-31.41Q29.55-32.89 29.48-33.96L29.48-33.96L29.48-33.96Q29.42-35.03 29.11-36.04L29.11-36.04L29.11-36.04Q28.48-38.37 26.55-38.37L26.55-38.37L26.55-38.37Q24.63-38.37 22.71-36.57L22.71-36.57L22.71-36.57Q20.79-34.78 19.15-31.75L19.15-31.75L19.15-31.75Q15.44-24.89 15.44-16.76L15.44-16.76L15.44-16.76Q15.44-12.85 17.64-10.62L17.64-10.62L17.64-10.62Q19.84-8.38 24.57-8.38L24.57-8.38L24.57-8.38Q28.10-8.38 31.44-10.71L31.44-10.71L31.44-10.71Q32.89-11.72 33.96-13.04ZM54.56 1.26L54.56 1.26L54.56 1.26Q40.70 1.26 40.70-11.78L40.70-11.78L40.70-11.78Q40.70-21.04 45.80-27.03L45.80-27.03L45.80-27.03Q51.22-33.39 60.61-33.39L60.61-33.39L60.61-33.39Q67.41-33.39 70.88-30.24L70.88-30.24L70.88-30.24Q74.34-27.09 74.34-20.48L74.34-20.48L74.34-20.48Q74.34-10.39 68.92-4.54L68.92-4.54L68.92-4.54Q63.63 1.26 54.56 1.26ZM56.20-26.14L56.20-26.14L56.20-26.14Q55.44-24.44 54.84-21.89L54.84-21.89L54.84-21.89Q54.24-19.34 53.49-15.31L53.49-15.31L53.49-15.31Q52.73-11.28 52.73-6.30L52.73-6.30L52.73-6.30Q52.73-4.66 53.27-3.59L53.27-3.59L53.27-3.59Q53.80-2.52 55.25-2.52L55.25-2.52L55.25-2.52Q56.70-2.52 57.61-3.21L57.61-3.21L57.61-3.21Q58.53-3.91 59.22-5.54L59.22-5.54L59.22-5.54Q60.48-8.44 61.49-13.83L61.49-13.83L61.49-13.83Q62.50-19.21 62.59-21.55L62.59-21.55L62.59-21.55Q62.69-23.88 62.69-25.61L62.69-25.61L62.69-25.61Q62.69-27.34 62.18-28.48L62.18-28.48L62.18-28.48Q61.68-29.61 60.26-29.61L60.26-29.61L60.26-29.61Q58.84-29.61 57.90-28.73L57.90-28.73L57.90-28.73Q56.95-27.85 56.20-26.14ZM104.71 1.26L104.71 1.26L104.71 1.26Q97.08 1.26 97.08-4.66L97.08-4.66L97.08-4.66Q97.15-6.30 97.65-9.07L97.65-9.07L98.78-14.87L98.78-14.87Q100.48-23.06 100.48-24.89L100.48-24.89L100.48-24.89Q100.48-28.54 98.34-28.54L98.34-28.54L98.34-28.54Q94.75-28.54 92.86-19.15L92.86-19.15L89.14 0L76.48 1.26L83.03-32.19L93.37-33.39L92.36-27.22L92.36-27.22Q95.32-33.39 104.39-33.39L104.39-33.39L104.39-33.39Q108.80-33.39 110.66-31.53L110.66-31.53L110.66-31.53Q112.52-29.67 112.52-25.52L112.52-25.52L112.52-25.52Q112.52-21.61 110.50-12.47L110.50-12.47L110.50-12.47Q109.56-8.38 109.56-6.84L109.56-6.84L109.56-6.84Q109.56-5.29 110.41-4.41L110.41-4.41L110.41-4.41Q111.26-3.53 112.52-3.40L112.52-3.40L112.52-3.40Q111.89-1.26 109.71 0L109.71 0L109.71 0Q107.54 1.26 104.71 1.26ZM118.57-6.30L118.57-6.30L118.57-6.30Q118.57-8.00 119.45-12.29L119.45-12.29L122.79-29.30L119.07-29.30L119.32-31.18L119.32-31.18Q126.88-33.45 134.19-39.00L134.19-39.00L137.21-39.00L135.70-32.13L140.62-32.13L140.05-29.30L135.20-29.30L131.98-12.29L131.98-12.29Q131.17-8.38 131.17-7.06L131.17-7.06L131.17-7.06Q131.17-4.03 133.81-3.40L133.81-3.40L133.81-3.40Q133.18-1.26 130.91 0L130.91 0L130.91 0Q128.65 1.26 125.43 1.26L125.43 1.26L125.43 1.26Q122.22 1.26 120.39-0.76L120.39-0.76L120.39-0.76Q118.57-2.77 118.57-6.30ZM142.79-1.89L142.79-1.89L142.79-1.89Q141.31-3.53 140.65-6.11L140.65-6.11L140.65-6.11Q139.99-8.69 139.99-12.92L139.99-12.92L139.99-12.92Q139.99-17.14 141.43-20.98L141.43-20.98L141.43-20.98Q142.88-24.82 145.53-27.59L145.53-27.59L145.53-27.59Q150.95-33.39 159.89-33.39L159.89-33.39L159.89-33.39Q163.11-33.39 165.44-32.32L165.44-32.32L176.21-33.39L171.55-8.82L171.55-8.82Q171.36-8.06 171.36-6.68L171.36-6.68L171.36-6.68Q171.36-5.29 172.21-4.41L172.21-4.41L172.21-4.41Q173.06-3.53 174.32-3.40L174.32-3.40L174.32-3.40Q173.69-1.26 171.39 0L171.39 0L171.39 0Q169.09 1.26 166.51 1.26L166.51 1.26L166.51 1.26Q163.93 1.26 162.19 0.28L162.19 0.28L162.19 0.28Q160.46-0.69 159.96-2.33L159.96-2.33L159.96-2.33Q158.95-0.76 156.81 0.25L156.81 0.25L156.81 0.25Q154.66 1.26 151.80 1.26L151.80 1.26L151.80 1.26Q148.93 1.26 146.60 0.50L146.60 0.50L146.60 0.50Q144.27-0.25 142.79-1.89ZM156.08-27.47L156.08-27.47L156.08-27.47Q155.36-26.33 154.73-24.41L154.73-24.41L154.73-24.41Q154.10-22.49 153.06-17.36L153.06-17.36L153.06-17.36Q152.02-12.22 152.02-8.57L152.02-8.57L152.02-8.57Q152.02-4.91 152.59-3.84L152.59-3.84L152.59-3.84Q153.15-2.77 154.16-2.77L154.16-2.77L154.16-2.77Q156.18-2.77 157.66-4.69L157.66-4.69L157.66-4.69Q159.14-6.62 159.70-10.02L159.70-10.02L163.04-28.48L163.04-28.48Q161.72-29.61 160.18-29.61L160.18-29.61L160.18-29.61Q158.63-29.61 157.72-29.11L157.72-29.11L157.72-29.11Q156.81-28.60 156.08-27.47ZM210.29-26.21L210.29-26.21L210.29-26.21Q210.29-23.56 208.09-21.92L208.09-21.92L208.09-21.92Q205.88-20.29 202.29-20.29L202.29-20.29L202.29-20.29Q200.78-20.29 199.90-20.73L199.90-20.73L199.90-20.73Q200.59-22.36 200.81-24.41L200.81-24.41L200.81-24.41Q201.03-26.46 201.03-27.03L201.03-27.03L201.03-27.03Q201.03-29.67 199.21-29.67L199.21-29.67L199.21-29.67Q197.95-29.67 196.53-28.10L196.53-28.10L196.53-28.10Q195.11-26.52 193.91-24.07L193.91-24.07L193.91-24.07Q191.27-18.40 191.27-12.66L191.27-12.66L191.27-12.66Q191.27-9.51 192.46-8.10L192.46-8.10L192.46-8.10Q193.66-6.68 196.31-6.68L196.31-6.68L196.31-6.68Q199.96-6.68 202.86-9.70L202.86-9.70L202.86-9.70Q203.68-10.65 204.12-11.72L204.12-11.72L204.12-11.72Q206.51-10.46 206.51-6.99L206.51-6.99L206.51-6.99Q206.51-3.46 202.61-1.13L202.61-1.13L202.61-1.13Q198.58 1.26 192.15 1.26L192.15 1.26L192.15 1.26Q179.36 1.26 179.36-12.29L179.36-12.29L179.36-12.29Q179.36-22.18 184.97-27.85L184.97-27.85L184.97-27.85Q190.39-33.39 200.34-33.39L200.34-33.39L200.34-33.39Q210.29-33.39 210.29-26.21ZM213.00-6.30L213.00-6.30L213.00-6.30Q213.00-8.00 213.88-12.29L213.88-12.29L217.22-29.30L213.51-29.30L213.76-31.18L213.76-31.18Q221.32-33.45 228.63-39.00L228.63-39.00L231.65-39.00L230.14-32.13L235.05-32.13L234.49-29.30L229.63-29.30L226.42-12.29L226.42-12.29Q225.60-8.38 225.60-7.06L225.60-7.06L225.60-7.06Q225.60-4.03 228.25-3.40L228.25-3.40L228.25-3.40Q227.62-1.26 225.35 0L225.35 0L225.35 0Q223.08 1.26 219.87 1.26L219.87 1.26L219.87 1.26Q216.66 1.26 214.83-0.76L214.83-0.76L214.83-0.76Q213.00-2.77 213.00-6.30ZM253.07 0L245.83 0L257.23-41.58L270.40-41.58L273.29-17.83L285.01-41.58L296.04-41.58L297.17-10.46L297.17-10.46Q297.42-4.28 300.45-2.39L300.45-2.39L300.45-2.39Q299.75-1.13 297.74 0.06L297.74 0.06L297.74 0.06Q295.72 1.26 293.04 1.26L293.04 1.26L293.04 1.26Q290.37 1.26 288.79 0.50L288.79 0.50L288.79 0.50Q287.22-0.25 286.33-1.51L286.33-1.51L286.33-1.51Q284.76-3.78 284.76-8.13L284.76-8.13L284.76-27.59L272.35 0L264.54 0L260.13-28.29L253.07 0ZM328.67-10.65L328.67-10.65L328.67-10.65Q330.25-9.58 330.25-7.21L330.25-7.21L330.25-7.21Q330.25-4.85 329.05-3.34L329.05-3.34L329.05-3.34Q327.85-1.83 325.90-0.82L325.90-0.82L325.90-0.82Q321.87 1.26 317.52 1.26L317.52 1.26L317.52 1.26Q313.17 1.26 310.62 0.32L310.62 0.32L310.62 0.32Q308.07-0.63 306.37-2.39L306.37-2.39L306.37-2.39Q303.03-5.73 303.03-11.84L303.03-11.84L303.03-11.84Q303.03-21.36 308.20-27.15L308.20-27.15L308.20-27.15Q313.74-33.39 323.38-33.39L323.38-33.39L323.38-33.39Q329.36-33.39 332.32-30.87L332.32-30.87L332.32-30.87Q334.53-28.98 334.53-25.89L334.53-25.89L334.53-25.89Q334.53-14.80 315.38-14.80L315.38-14.80L315.38-14.80Q315.13-13.17 315.13-11.78L315.13-11.78L315.13-11.78Q315.13-8.88 316.42-7.78L316.42-7.78L316.42-7.78Q317.71-6.68 320.10-6.68L320.10-6.68L320.10-6.68Q322.50-6.68 325.05-7.78L325.05-7.78L325.05-7.78Q327.60-8.88 328.67-10.65ZM315.82-17.51L315.82-17.51L315.82-17.51Q320.29-17.51 322.88-20.29L322.88-20.29L322.88-20.29Q325.46-22.93 325.46-27.15L325.46-27.15L325.46-27.15Q325.46-28.60 324.92-29.39L324.92-29.39L324.92-29.39Q324.39-30.18 323.32-30.18L323.32-30.18L323.32-30.18Q322.25-30.18 321.33-29.77L321.33-29.77L321.33-29.77Q320.42-29.36 319.47-27.97L319.47-27.97L319.47-27.97Q317.14-24.82 315.82-17.51Z" fill="none" stroke="#fff" stroke-width="2.1"></path></g></g></g><style>text {
  font-size: 64px;
  font-family: Arial Black;
  dominant-baseline: central;
  text-anchor: middle;
}</style></svg>