<svg xmlns="http://www.w3.org/2000/svg" viewBox="-19.21809082031251 15.200640869140628 538.436181640625 119.59871826171874" style="background:transparent;" preserveAspectRatio="xMidYMid"><defs><filter id="editing-vintage" x="-100%" y="-100%" width="300%" height="300%"><feConvolveMatrix in="SourceGraphic" result="extrude" order="4,4" divisor="1" kernelMatrix="1,0,0,0,0,1,0,0,0,0,1,0,0,0,0,1"> </feConvolveMatrix><feFlood flood-color="#900" result="flood-extrude"></feFlood><feComposite operator="in" in="flood-extrude" in2="extrude" result="extrude-color"></feComposite><feOffset dx="2" dy="2" in="extrude-color" result="extrude-offset"></feOffset><feColorMatrix in="SourceGraphic" result="stroke" type="matrix" values="0 0 0 0 0 0 0 0 0 0 0 0 0 0 0 0 1 0 0 0 "></feColorMatrix><feColorMatrix in="SourceGraphic" result="fill" type="matrix" values="0 0 0 0 0 0 0 0 0 0 0 0 0 0 0 1 0 0 1 0 "></feColorMatrix><feConvolveMatrix in="stroke" result="inner-shadow" order="5,5" divisor="1" kernelMatrix="1 0 0 0 0 0 1 0 0 0 0 0 1 0 0 0 0 0 1 0 0 0 0 0 1 "></feConvolveMatrix><feOffset dx="1" dy="1" in="inner-shadow" result="offset"></feOffset><feComposite operator="in" in="offset" in2="SourceAlpha" result="comp"></feComposite><feFlood flood-color="#000" result="flood3"></feFlood><feComposite operator="in" in="flood3" in2="comp" result="comp2"></feComposite><feColorMatrix in="comp2" result="comp3" type="matrix" values="1 0 0 0 0 0 1 0 0 0 0 0 1 0 0 0 0 0 0.5 0 "></feColorMatrix><feFlood flood-color="#f00" result="flood1"></feFlood><feComposite operator="in" in="flood1" in2="fill" result="fill2"></feComposite><feFlood flood-color="#fff" result="flood2"></feFlood><feComposite operator="in" in="flood2" in2="stroke" result="stroke2"></feComposite><feMerge result="obj"><feMergeNode in="extrude-offset"></feMergeNode><feMergeNode in="fill2"></feMergeNode><feMergeNode in="comp3"></feMergeNode></feMerge><feConvolveMatrix in="SourceAlpha" result="shadow" order="4,4" divisor="1" kernelMatrix="1,0,0,0,0,1,0,0,0,0,1,0,0,0,0,1"></feConvolveMatrix><feOffset dx="6" dy="6" in="shadow" result="shadow-offset"></feOffset><feFlood flood-color="#444444" result="flood-shadow"></feFlood><feComposite operator="in" in="flood-shadow" in2="shadow-offset" result="shadow-color"></feComposite><feMerge><feMergeNode in="shadow-color"></feMergeNode><feMergeNode in="obj"></feMergeNode></feMerge></filter></defs><g transform="translate(-4,-4)"><g filter="url(#editing-vintage)"><g transform="translate(61.11156493425369, 104.08281326293945)"><path d="M6.43 0L-0.82 0L10.58-41.58L23.75-41.58L26.65-17.83L38.37-41.58L49.39-41.58L50.53-10.46L50.53-10.46Q50.78-4.28 53.80-2.39L53.80-2.39L53.80-2.39Q53.11-1.13 51.09 0.06L51.09 0.06L51.09 0.06Q49.08 1.26 46.40 1.26L46.40 1.26L46.40 1.26Q43.72 1.26 42.15 0.50L42.15 0.50L42.15 0.50Q40.57-0.25 39.69-1.51L39.69-1.51L39.69-1.51Q38.12-3.78 38.12-8.13L38.12-8.13L38.12-27.59L25.70 0L17.89 0L13.48-28.29L6.43 0ZM76.55-7.12L76.55-7.12L76.55-7.12Q73.27-3.72 67.28-3.72L67.28-3.72L67.28-3.72Q59.79-3.72 58.21-9.20L58.21-9.20L58.21-9.20Q57.71-10.84 57.71-12.66L57.71-12.66L57.71-12.66Q57.71-14.49 58.09-16.38L58.09-16.38L61.05-32.13L73.84-33.39L70.37-15.06L70.37-15.06Q70.25-14.24 70.06-13.36L70.06-13.36L70.06-13.36Q69.87-12.47 69.87-11.56L69.87-11.56L69.87-11.56Q69.87-10.65 70.18-10.05L70.18-10.05L70.18-10.05Q70.50-9.45 70.94-9.07L70.94-9.07L70.94-9.07Q71.69-8.57 73.05-8.57L73.05-8.57L73.05-8.57Q74.40-8.57 75.57-10.21L75.57-10.21L75.57-10.21Q76.73-11.84 77.30-14.68L77.30-14.68L80.77-32.13L93.18-33.39L88.45-8.63L88.45-8.63Q86.12 3.46 81.33 8.25L81.33 8.25L81.33 8.25Q78.88 10.71 75.69 11.69L75.69 11.69L75.69 11.69Q72.51 12.66 68.42 12.66L68.42 12.66L68.42 12.66Q61.80 12.66 58.02 10.58L58.02 10.58L58.02 10.58Q54.24 8.51 54.24 5.04L54.24 5.04L54.24 5.04Q54.24 2.46 56.20 0.98L56.20 0.98L56.20 0.98Q58.15-0.50 61.17-0.50L61.17-0.50L61.17-0.50Q63.82-0.50 65.83 0.63L65.83 0.63L65.83 0.63Q67.03 1.32 67.60 2.21L67.60 2.21L67.60 2.21Q66.15 3.46 66.15 5.54L66.15 5.54L66.15 5.54Q66.15 8.32 68.67 8.32L68.67 8.32L68.67 8.32Q72.83 8.32 75.22-1.26L75.22-1.26L75.22-1.26Q75.91-4.09 76.55-7.12ZM133.06-42.02L133.06-42.02L133.06-42.02Q148.49-42.02 148.49-31.12L148.49-31.12L148.49-31.12Q148.49-25.14 144.65-21.55L144.65-21.55L144.65-21.55Q140.87-17.96 134.25-17.96L134.25-17.96L134.25-17.96Q131.17-17.96 128.77-19.72L128.77-19.72L128.77-19.72Q127.64-20.48 126.88-21.48L126.88-21.48L126.88-21.48Q131.48-21.48 133.91-24.29L133.91-24.29L133.91-24.29Q136.33-27.09 136.33-32.57L136.33-32.57L136.33-32.57Q136.33-38.05 130.91-38.05L130.91-38.05L129.40-38.05L129.40-38.05Q129.02-38.05 128.71-37.99L128.71-37.99L121.46 0L107.79 0L115.54-41.27L115.54-41.27Q122.28-41.90 126.19-41.96L126.19-41.96L126.19-41.96Q130.09-42.02 133.06-42.02ZM162.54 1.26L162.54 1.26L162.54 1.26Q148.68 1.26 148.68-11.78L148.68-11.78L148.68-11.78Q148.68-21.04 153.78-27.03L153.78-27.03L153.78-27.03Q159.20-33.39 168.59-33.39L168.59-33.39L168.59-33.39Q175.39-33.39 178.86-30.24L178.86-30.24L178.86-30.24Q182.32-27.09 182.32-20.48L182.32-20.48L182.32-20.48Q182.32-10.39 176.90-4.54L176.90-4.54L176.90-4.54Q171.61 1.26 162.54 1.26ZM164.18-26.14L164.18-26.14L164.18-26.14Q163.42-24.44 162.82-21.89L162.82-21.89L162.82-21.89Q162.22-19.34 161.47-15.31L161.47-15.31L161.47-15.31Q160.71-11.28 160.71-6.30L160.71-6.30L160.71-6.30Q160.71-4.66 161.25-3.59L161.25-3.59L161.25-3.59Q161.78-2.52 163.23-2.52L163.23-2.52L163.23-2.52Q164.68-2.52 165.60-3.21L165.60-3.21L165.60-3.21Q166.51-3.91 167.20-5.54L167.20-5.54L167.20-5.54Q168.46-8.44 169.47-13.83L169.47-13.83L169.47-13.83Q170.48-19.21 170.57-21.55L170.57-21.55L170.57-21.55Q170.67-23.88 170.67-25.61L170.67-25.61L170.67-25.61Q170.67-27.34 170.16-28.48L170.16-28.48L170.16-28.48Q169.66-29.61 168.24-29.61L168.24-29.61L168.24-29.61Q166.82-29.61 165.88-28.73L165.88-28.73L165.88-28.73Q164.93-27.85 164.18-26.14ZM205.76-17.70L205.76-17.70L205.76-17.70Q208.03-21.73 208.03-25.83L208.03-25.83L208.03-25.83Q208.03-28.54 206.07-28.54L206.07-28.54L206.07-28.54Q204.56-28.54 202.99-25.96L202.99-25.96L202.99-25.96Q201.35-23.37 200.84-20.03L200.84-20.03L197.57 0L184.53 1.26L190.95-32.13L201.35-33.39L200.21-27.03L200.21-27.03Q203.30-33.39 210.23-33.39L210.23-33.39L210.23-33.39Q213.88-33.39 215.87-31.50L215.87-31.50L215.87-31.50Q217.85-29.61 217.85-25.74L217.85-25.74L217.85-25.74Q217.85-21.86 215.30-19.40L215.30-19.40L215.30-19.40Q212.75-16.95 208.40-16.95L208.40-16.95L208.40-16.95Q206.51-16.95 205.76-17.70ZM219.87-6.30L219.87-6.30L219.87-6.30Q219.87-8.00 220.75-12.29L220.75-12.29L224.09-29.30L220.37-29.30L220.63-31.18L220.63-31.18Q228.19-33.45 235.49-39.00L235.49-39.00L238.52-39.00L237.01-32.13L241.92-32.13L241.35-29.30L236.50-29.30L233.29-12.29L233.29-12.29Q232.47-8.38 232.47-7.06L232.47-7.06L232.47-7.06Q232.47-4.03 235.12-3.40L235.12-3.40L235.12-3.40Q234.49-1.26 232.22 0L232.22 0L232.22 0Q229.95 1.26 226.74 1.26L226.74 1.26L226.74 1.26Q223.52 1.26 221.70-0.76L221.70-0.76L221.70-0.76Q219.87-2.77 219.87-6.30ZM266.18-36.54L266.18-36.54L266.18-36.54Q267.06-38.05 267.06-39.69L267.06-39.69L267.06-39.69Q267.06-42.59 265.29-42.59L265.29-42.59L265.29-42.59Q262.58-42.59 261.45-37.04L261.45-37.04L260.50-32.13L266.24-32.13L265.86-29.30L259.94-29.30L254.27 0L241.54 1.26L247.59-29.30L243.12-29.30L243.68-32.13L248.09-32.13L249.42-37.11L249.42-37.11Q250.55-41.71 255.40-43.85L255.40-43.85L255.40-43.85Q258.93-45.36 264.85-45.36L264.85-45.36L264.85-45.36Q270.77-45.36 273.42-43.85L273.42-43.85L273.42-43.85Q276.07-42.34 276.07-40.32L276.07-40.32L276.07-40.32Q276.07-38.30 274.49-37.04L274.49-37.04L274.49-37.04Q272.92-35.78 271.15-35.78L271.15-35.78L271.15-35.78Q267.69-35.78 266.18-36.54ZM278.90 1.26L278.90 1.26L278.90 1.26Q265.04 1.26 265.04-11.78L265.04-11.78L265.04-11.78Q265.04-21.04 270.14-27.03L270.14-27.03L270.14-27.03Q275.56-33.39 284.95-33.39L284.95-33.39L284.95-33.39Q291.75-33.39 295.22-30.24L295.22-30.24L295.22-30.24Q298.68-27.09 298.68-20.48L298.68-20.48L298.68-20.48Q298.68-10.39 293.26-4.54L293.26-4.54L293.26-4.54Q287.97 1.26 278.90 1.26ZM280.54-26.14L280.54-26.14L280.54-26.14Q279.78-24.44 279.18-21.89L279.18-21.89L279.18-21.89Q278.59-19.34 277.83-15.31L277.83-15.31L277.83-15.31Q277.07-11.28 277.07-6.30L277.07-6.30L277.07-6.30Q277.07-4.66 277.61-3.59L277.61-3.59L277.61-3.59Q278.14-2.52 279.59-2.52L279.59-2.52L279.59-2.52Q281.04-2.52 281.96-3.21L281.96-3.21L281.96-3.21Q282.87-3.91 283.56-5.54L283.56-5.54L283.56-5.54Q284.82-8.44 285.83-13.83L285.83-13.83L285.83-13.83Q286.84-19.21 286.93-21.55L286.93-21.55L286.93-21.55Q287.03-23.88 287.03-25.61L287.03-25.61L287.03-25.61Q287.03-27.34 286.52-28.48L286.52-28.48L286.52-28.48Q286.02-29.61 284.60-29.61L284.60-29.61L284.60-29.61Q283.18-29.61 282.24-28.73L282.24-28.73L282.24-28.73Q281.29-27.85 280.54-26.14ZM317.46-3.46L317.46-3.46L317.46-3.46Q315.50 1.26 309.27 1.26L309.27 1.26L309.27 1.26Q306.12 1.26 304.10-0.95L304.10-0.95L304.10-0.95Q302.46-2.77 302.46-4.85L302.46-4.85L302.46-4.85Q302.46-9.58 304.67-19.91L304.67-19.91L309.27-44.10L322.06-45.36L315.94-13.48L315.94-13.48Q314.87-8.82 314.87-7.18L314.87-7.18L314.87-7.18Q314.87-3.59 317.46-3.46ZM337.93-3.46L337.93-3.46L337.93-3.46Q335.98 1.26 329.74 1.26L329.74 1.26L329.74 1.26Q326.53 1.26 324.51-0.95L324.51-0.95L324.51-0.95Q322.81-2.90 322.81-4.85L322.81-4.85L322.81-4.85Q322.81-9.95 325.14-19.91L325.14-19.91L327.47-32.13L340.26-33.39L336.42-13.48L336.42-13.48Q335.35-8.82 335.35-7.18L335.35-7.18L335.35-7.18Q335.35-3.59 337.93-3.46ZM328.61-40.89L328.61-40.89L328.61-40.89Q328.61-43.34 330.66-44.67L330.66-44.67L330.66-44.67Q332.70-45.99 335.66-45.99L335.66-45.99L335.66-45.99Q338.62-45.99 340.42-44.67L340.42-44.67L340.42-44.67Q342.22-43.34 342.22-40.89L342.22-40.89L342.22-40.89Q342.22-38.43 340.23-37.17L340.23-37.17L340.23-37.17Q338.25-35.91 335.29-35.91L335.29-35.91L335.29-35.91Q332.32-35.91 330.47-37.17L330.47-37.17L330.47-37.17Q328.61-38.43 328.61-40.89ZM357.02 1.26L357.02 1.26L357.02 1.26Q343.16 1.26 343.16-11.78L343.16-11.78L343.16-11.78Q343.16-21.04 348.26-27.03L348.26-27.03L348.26-27.03Q353.68-33.39 363.07-33.39L363.07-33.39L363.07-33.39Q369.87-33.39 373.34-30.24L373.34-30.24L373.34-30.24Q376.80-27.09 376.80-20.48L376.80-20.48L376.80-20.48Q376.80-10.39 371.38-4.54L371.38-4.54L371.38-4.54Q366.09 1.26 357.02 1.26ZM358.66-26.14L358.66-26.14L358.66-26.14Q357.90-24.44 357.30-21.89L357.30-21.89L357.30-21.89Q356.71-19.34 355.95-15.31L355.95-15.31L355.95-15.31Q355.19-11.28 355.19-6.30L355.19-6.30L355.19-6.30Q355.19-4.66 355.73-3.59L355.73-3.59L355.73-3.59Q356.26-2.52 357.71-2.52L357.71-2.52L357.71-2.52Q359.16-2.52 360.08-3.21L360.08-3.21L360.08-3.21Q360.99-3.91 361.68-5.54L361.68-5.54L361.68-5.54Q362.94-8.44 363.95-13.83L363.95-13.83L363.95-13.83Q364.96-19.21 365.05-21.55L365.05-21.55L365.05-21.55Q365.15-23.88 365.15-25.61L365.15-25.61L365.15-25.61Q365.15-27.34 364.64-28.48L364.64-28.48L364.64-28.48Q364.14-29.61 362.72-29.61L362.72-29.61L362.72-29.61Q361.30-29.61 360.36-28.73L360.36-28.73L360.36-28.73Q359.41-27.85 358.66-26.14Z" fill="#f00" stroke="#0f0" stroke-width="1.8"></path></g></g><g><g transform="translate(61.00218993425369, 104.30937576293945)"><path d="M6.43 0L-0.82 0L10.58-41.58L23.75-41.58L26.65-17.83L38.37-41.58L49.39-41.58L50.53-10.46L50.53-10.46Q50.78-4.28 53.80-2.39L53.80-2.39L53.80-2.39Q53.11-1.13 51.09 0.06L51.09 0.06L51.09 0.06Q49.08 1.26 46.40 1.26L46.40 1.26L46.40 1.26Q43.72 1.26 42.15 0.50L42.15 0.50L42.15 0.50Q40.57-0.25 39.69-1.51L39.69-1.51L39.69-1.51Q38.12-3.78 38.12-8.13L38.12-8.13L38.12-27.59L25.70 0L17.89 0L13.48-28.29L6.43 0ZM76.55-7.12L76.55-7.12L76.55-7.12Q73.27-3.72 67.28-3.72L67.28-3.72L67.28-3.72Q59.79-3.72 58.21-9.20L58.21-9.20L58.21-9.20Q57.71-10.84 57.71-12.66L57.71-12.66L57.71-12.66Q57.71-14.49 58.09-16.38L58.09-16.38L61.05-32.13L73.84-33.39L70.37-15.06L70.37-15.06Q70.25-14.24 70.06-13.36L70.06-13.36L70.06-13.36Q69.87-12.47 69.87-11.56L69.87-11.56L69.87-11.56Q69.87-10.65 70.18-10.05L70.18-10.05L70.18-10.05Q70.50-9.45 70.94-9.07L70.94-9.07L70.94-9.07Q71.69-8.57 73.05-8.57L73.05-8.57L73.05-8.57Q74.40-8.57 75.57-10.21L75.57-10.21L75.57-10.21Q76.73-11.84 77.30-14.68L77.30-14.68L80.77-32.13L93.18-33.39L88.45-8.63L88.45-8.63Q86.12 3.46 81.33 8.25L81.33 8.25L81.33 8.25Q78.88 10.71 75.69 11.69L75.69 11.69L75.69 11.69Q72.51 12.66 68.42 12.66L68.42 12.66L68.42 12.66Q61.80 12.66 58.02 10.58L58.02 10.58L58.02 10.58Q54.24 8.51 54.24 5.04L54.24 5.04L54.24 5.04Q54.24 2.46 56.20 0.98L56.20 0.98L56.20 0.98Q58.15-0.50 61.17-0.50L61.17-0.50L61.17-0.50Q63.82-0.50 65.83 0.63L65.83 0.63L65.83 0.63Q67.03 1.32 67.60 2.21L67.60 2.21L67.60 2.21Q66.15 3.46 66.15 5.54L66.15 5.54L66.15 5.54Q66.15 8.32 68.67 8.32L68.67 8.32L68.67 8.32Q72.83 8.32 75.22-1.26L75.22-1.26L75.22-1.26Q75.91-4.09 76.55-7.12ZM133.06-42.02L133.06-42.02L133.06-42.02Q148.49-42.02 148.49-31.12L148.49-31.12L148.49-31.12Q148.49-25.14 144.65-21.55L144.65-21.55L144.65-21.55Q140.87-17.96 134.25-17.96L134.25-17.96L134.25-17.96Q131.17-17.96 128.77-19.72L128.77-19.72L128.77-19.72Q127.64-20.48 126.88-21.48L126.88-21.48L126.88-21.48Q131.48-21.48 133.91-24.29L133.91-24.29L133.91-24.29Q136.33-27.09 136.33-32.57L136.33-32.57L136.33-32.57Q136.33-38.05 130.91-38.05L130.91-38.05L129.40-38.05L129.40-38.05Q129.02-38.05 128.71-37.99L128.71-37.99L121.46 0L107.79 0L115.54-41.27L115.54-41.27Q122.28-41.90 126.19-41.96L126.19-41.96L126.19-41.96Q130.09-42.02 133.06-42.02ZM162.54 1.26L162.54 1.26L162.54 1.26Q148.68 1.26 148.68-11.78L148.68-11.78L148.68-11.78Q148.68-21.04 153.78-27.03L153.78-27.03L153.78-27.03Q159.20-33.39 168.59-33.39L168.59-33.39L168.59-33.39Q175.39-33.39 178.86-30.24L178.86-30.24L178.86-30.24Q182.32-27.09 182.32-20.48L182.32-20.48L182.32-20.48Q182.32-10.39 176.90-4.54L176.90-4.54L176.90-4.54Q171.61 1.26 162.54 1.26ZM164.18-26.14L164.18-26.14L164.18-26.14Q163.42-24.44 162.82-21.89L162.82-21.89L162.82-21.89Q162.22-19.34 161.47-15.31L161.47-15.31L161.47-15.31Q160.71-11.28 160.71-6.30L160.71-6.30L160.71-6.30Q160.71-4.66 161.25-3.59L161.25-3.59L161.25-3.59Q161.78-2.52 163.23-2.52L163.23-2.52L163.23-2.52Q164.68-2.52 165.60-3.21L165.60-3.21L165.60-3.21Q166.51-3.91 167.20-5.54L167.20-5.54L167.20-5.54Q168.46-8.44 169.47-13.83L169.47-13.83L169.47-13.83Q170.48-19.21 170.57-21.55L170.57-21.55L170.57-21.55Q170.67-23.88 170.67-25.61L170.67-25.61L170.67-25.61Q170.67-27.34 170.16-28.48L170.16-28.48L170.16-28.48Q169.66-29.61 168.24-29.61L168.24-29.61L168.24-29.61Q166.82-29.61 165.88-28.73L165.88-28.73L165.88-28.73Q164.93-27.85 164.18-26.14ZM205.76-17.70L205.76-17.70L205.76-17.70Q208.03-21.73 208.03-25.83L208.03-25.83L208.03-25.83Q208.03-28.54 206.07-28.54L206.07-28.54L206.07-28.54Q204.56-28.54 202.99-25.96L202.99-25.96L202.99-25.96Q201.35-23.37 200.84-20.03L200.84-20.03L197.57 0L184.53 1.26L190.95-32.13L201.35-33.39L200.21-27.03L200.21-27.03Q203.30-33.39 210.23-33.39L210.23-33.39L210.23-33.39Q213.88-33.39 215.87-31.50L215.87-31.50L215.87-31.50Q217.85-29.61 217.85-25.74L217.85-25.74L217.85-25.74Q217.85-21.86 215.30-19.40L215.30-19.40L215.30-19.40Q212.75-16.95 208.40-16.95L208.40-16.95L208.40-16.95Q206.51-16.95 205.76-17.70ZM219.87-6.30L219.87-6.30L219.87-6.30Q219.87-8.00 220.75-12.29L220.75-12.29L224.09-29.30L220.37-29.30L220.63-31.18L220.63-31.18Q228.19-33.45 235.49-39.00L235.49-39.00L238.52-39.00L237.01-32.13L241.92-32.13L241.35-29.30L236.50-29.30L233.29-12.29L233.29-12.29Q232.47-8.38 232.47-7.06L232.47-7.06L232.47-7.06Q232.47-4.03 235.12-3.40L235.12-3.40L235.12-3.40Q234.49-1.26 232.22 0L232.22 0L232.22 0Q229.95 1.26 226.74 1.26L226.74 1.26L226.74 1.26Q223.52 1.26 221.70-0.76L221.70-0.76L221.70-0.76Q219.87-2.77 219.87-6.30ZM266.18-36.54L266.18-36.54L266.18-36.54Q267.06-38.05 267.06-39.69L267.06-39.69L267.06-39.69Q267.06-42.59 265.29-42.59L265.29-42.59L265.29-42.59Q262.58-42.59 261.45-37.04L261.45-37.04L260.50-32.13L266.24-32.13L265.86-29.30L259.94-29.30L254.27 0L241.54 1.26L247.59-29.30L243.12-29.30L243.68-32.13L248.09-32.13L249.42-37.11L249.42-37.11Q250.55-41.71 255.40-43.85L255.40-43.85L255.40-43.85Q258.93-45.36 264.85-45.36L264.85-45.36L264.85-45.36Q270.77-45.36 273.42-43.85L273.42-43.85L273.42-43.85Q276.07-42.34 276.07-40.32L276.07-40.32L276.07-40.32Q276.07-38.30 274.49-37.04L274.49-37.04L274.49-37.04Q272.92-35.78 271.15-35.78L271.15-35.78L271.15-35.78Q267.69-35.78 266.18-36.54ZM278.90 1.26L278.90 1.26L278.90 1.26Q265.04 1.26 265.04-11.78L265.04-11.78L265.04-11.78Q265.04-21.04 270.14-27.03L270.14-27.03L270.14-27.03Q275.56-33.39 284.95-33.39L284.95-33.39L284.95-33.39Q291.75-33.39 295.22-30.24L295.22-30.24L295.22-30.24Q298.68-27.09 298.68-20.48L298.68-20.48L298.68-20.48Q298.68-10.39 293.26-4.54L293.26-4.54L293.26-4.54Q287.97 1.26 278.90 1.26ZM280.54-26.14L280.54-26.14L280.54-26.14Q279.78-24.44 279.18-21.89L279.18-21.89L279.18-21.89Q278.59-19.34 277.83-15.31L277.83-15.31L277.83-15.31Q277.07-11.28 277.07-6.30L277.07-6.30L277.07-6.30Q277.07-4.66 277.61-3.59L277.61-3.59L277.61-3.59Q278.14-2.52 279.59-2.52L279.59-2.52L279.59-2.52Q281.04-2.52 281.96-3.21L281.96-3.21L281.96-3.21Q282.87-3.91 283.56-5.54L283.56-5.54L283.56-5.54Q284.82-8.44 285.83-13.83L285.83-13.83L285.83-13.83Q286.84-19.21 286.93-21.55L286.93-21.55L286.93-21.55Q287.03-23.88 287.03-25.61L287.03-25.61L287.03-25.61Q287.03-27.34 286.52-28.48L286.52-28.48L286.52-28.48Q286.02-29.61 284.60-29.61L284.60-29.61L284.60-29.61Q283.18-29.61 282.24-28.73L282.24-28.73L282.24-28.73Q281.29-27.85 280.54-26.14ZM317.46-3.46L317.46-3.46L317.46-3.46Q315.50 1.26 309.27 1.26L309.27 1.26L309.27 1.26Q306.12 1.26 304.10-0.95L304.10-0.95L304.10-0.95Q302.46-2.77 302.46-4.85L302.46-4.85L302.46-4.85Q302.46-9.58 304.67-19.91L304.67-19.91L309.27-44.10L322.06-45.36L315.94-13.48L315.94-13.48Q314.87-8.82 314.87-7.18L314.87-7.18L314.87-7.18Q314.87-3.59 317.46-3.46ZM337.93-3.46L337.93-3.46L337.93-3.46Q335.98 1.26 329.74 1.26L329.74 1.26L329.74 1.26Q326.53 1.26 324.51-0.95L324.51-0.95L324.51-0.95Q322.81-2.90 322.81-4.85L322.81-4.85L322.81-4.85Q322.81-9.95 325.14-19.91L325.14-19.91L327.47-32.13L340.26-33.39L336.42-13.48L336.42-13.48Q335.35-8.82 335.35-7.18L335.35-7.18L335.35-7.18Q335.35-3.59 337.93-3.46ZM328.61-40.89L328.61-40.89L328.61-40.89Q328.61-43.34 330.66-44.67L330.66-44.67L330.66-44.67Q332.70-45.99 335.66-45.99L335.66-45.99L335.66-45.99Q338.62-45.99 340.42-44.67L340.42-44.67L340.42-44.67Q342.22-43.34 342.22-40.89L342.22-40.89L342.22-40.89Q342.22-38.43 340.23-37.17L340.23-37.17L340.23-37.17Q338.25-35.91 335.29-35.91L335.29-35.91L335.29-35.91Q332.32-35.91 330.47-37.17L330.47-37.17L330.47-37.17Q328.61-38.43 328.61-40.89ZM357.02 1.26L357.02 1.26L357.02 1.26Q343.16 1.26 343.16-11.78L343.16-11.78L343.16-11.78Q343.16-21.04 348.26-27.03L348.26-27.03L348.26-27.03Q353.68-33.39 363.07-33.39L363.07-33.39L363.07-33.39Q369.87-33.39 373.34-30.24L373.34-30.24L373.34-30.24Q376.80-27.09 376.80-20.48L376.80-20.48L376.80-20.48Q376.80-10.39 371.38-4.54L371.38-4.54L371.38-4.54Q366.09 1.26 357.02 1.26ZM358.66-26.14L358.66-26.14L358.66-26.14Q357.90-24.44 357.30-21.89L357.30-21.89L357.30-21.89Q356.71-19.34 355.95-15.31L355.95-15.31L355.95-15.31Q355.19-11.28 355.19-6.30L355.19-6.30L355.19-6.30Q355.19-4.66 355.73-3.59L355.73-3.59L355.73-3.59Q356.26-2.52 357.71-2.52L357.71-2.52L357.71-2.52Q359.16-2.52 360.08-3.21L360.08-3.21L360.08-3.21Q360.99-3.91 361.68-5.54L361.68-5.54L361.68-5.54Q362.94-8.44 363.95-13.83L363.95-13.83L363.95-13.83Q364.96-19.21 365.05-21.55L365.05-21.55L365.05-21.55Q365.15-23.88 365.15-25.61L365.15-25.61L365.15-25.61Q365.15-27.34 364.64-28.48L364.64-28.48L364.64-28.48Q364.14-29.61 362.72-29.61L362.72-29.61L362.72-29.61Q361.30-29.61 360.36-28.73L360.36-28.73L360.36-28.73Q359.41-27.85 358.66-26.14Z" fill="none" stroke="#fff" stroke-width="2.1"></path></g></g></g><style>text {
  font-size: 64px;
  font-family: Arial Black;
  dominant-baseline: central;
  text-anchor: middle;
}</style></svg>