
<svg version="1.0" xmlns="http://www.w3.org/2000/svg" viewBox="0 0 1024.000000 1500.000000"
 preserveAspectRatio="xMidYMid meet">
<metadata>
Created by potrace 1.15, written by Peter Selinger 2001-2017
</metadata>
<g transform="translate(0.000000,1500.000000) scale(0.100000,-0.100000)"
fill="#000000" stroke="none">

<path d="M5237 14483 c-26 -4 -53 -34 -40 -47 3 -3 -9 -6 -28 -6 -19 0 -39 -4
-44 -9 -9 -8 -59 -15 -92 -12 -6 1 -16 16 -23 34 l-12 32 -9 -32 -10 -33 -74
0 c-43 0 -75 -4 -75 -10 0 -14 -44 -12 -58 2 -10 10 -15 10 -21 -1 -6 -8 -16
-11 -27 -7 -44 17 -124 18 -149 2 -13 -9 -42 -16 -65 -16 -22 0 -40 -4 -40
-10 0 -5 -11 -10 -24 -10 -14 0 -28 -4 -31 -10 -3 -5 -13 -10 -21 -10 -16 0
-118 -72 -130 -91 -3 -6 -31 -22 -60 -35 -30 -13 -71 -35 -92 -48 -20 -13 -65
-34 -98 -47 -34 -13 -60 -28 -58 -34 5 -11 -50 -35 -80 -35 -9 0 -32 -15 -50
-32 -115 -113 -188 -178 -199 -178 -7 0 -27 -13 -45 -30 -18 -16 -36 -30 -39
-30 -3 0 -19 -10 -36 -22 -44 -32 -64 -44 -126 -74 -52 -26 -134 -98 -135
-119 -1 -5 -9 -11 -20 -13 -11 -3 -16 0 -12 7 4 6 2 11 -3 11 -6 0 -11 -7 -11
-15 0 -8 8 -15 17 -15 14 0 13 -3 -5 -21 -24 -21 -133 -79 -151 -79 -18 0
-132 -91 -130 -103 3 -19 -19 -67 -31 -67 -5 0 -10 -6 -10 -14 0 -8 -11 -27
-24 -43 -12 -15 -21 -33 -19 -40 4 -10 -11 -39 -39 -78 -4 -5 -28 -34 -53 -63
-25 -29 -45 -59 -45 -66 0 -8 -6 -19 -13 -25 -8 -6 -20 -30 -27 -53 -8 -24
-26 -59 -42 -79 -15 -20 -28 -44 -28 -54 0 -9 -12 -37 -27 -63 -20 -34 -23
-44 -11 -39 14 5 15 2 6 -26 -6 -18 -17 -39 -24 -48 -8 -8 -14 -36 -14 -62 0
-25 -4 -49 -10 -52 -12 -7 -14 -26 -2 -24 24 4 34 -3 29 -21 -3 -13 0 -20 9
-20 16 0 19 -16 5 -24 -5 -4 -12 -24 -16 -46 -4 -22 -11 -43 -17 -46 -6 -4 -5
-9 3 -15 10 -6 10 -13 1 -34 -7 -14 -12 -33 -12 -42 0 -9 -8 -25 -17 -35 -14
-16 -15 -21 -4 -28 12 -7 12 -13 1 -41 -11 -25 -11 -34 -2 -37 16 -5 15 -45 0
-60 -10 -10 -10 -15 1 -21 9 -6 10 -11 2 -15 -16 -10 -13 -29 4 -23 11 5 12 1
6 -16 -5 -12 -9 -41 -9 -64 0 -24 -7 -52 -15 -63 -8 -11 -13 -34 -11 -50 2
-16 -1 -42 -6 -56 -8 -20 -7 -32 5 -50 16 -25 19 -38 8 -31 -5 3 -9 -18 -9
-46 -2 -58 -16 -136 -34 -182 -6 -16 -20 -72 -30 -123 -11 -52 -26 -105 -35
-118 -19 -29 -19 -40 -1 -25 21 17 25 3 16 -54 -8 -53 -3 -76 12 -54 6 10 8 3
6 -21 -2 -19 -8 -35 -15 -35 -6 0 -15 -3 -19 -7 -9 -9 -15 -139 -7 -152 3 -5
16 11 29 35 21 42 22 43 29 19 8 -33 -30 -121 -56 -127 -20 -6 -24 -15 -34
-80 -9 -55 4 -56 67 -2 26 22 53 37 59 33 7 -4 9 0 5 13 -4 13 0 25 10 34 16
13 17 11 10 -23 -5 -30 -3 -40 17 -60 12 -13 29 -38 36 -55 7 -18 17 -33 21
-33 4 0 10 -8 14 -17 6 -21 25 -51 44 -71 6 -7 12 -20 12 -28 0 -8 5 -14 10
-14 6 0 10 6 10 13 0 6 9 -1 19 -17 17 -25 20 -26 24 -10 3 13 5 10 6 -10 1
-23 5 -27 20 -23 15 3 21 -1 23 -17 2 -11 10 -21 18 -21 17 0 40 -40 40 -70 0
-11 9 -26 20 -32 23 -15 45 -55 55 -103 8 -38 40 -80 62 -80 7 0 15 -17 19
-40 4 -22 10 -37 15 -34 5 3 6 -2 3 -10 -3 -9 -1 -16 5 -16 6 0 10 -6 8 -12
-1 -7 6 -12 16 -12 9 1 17 -5 17 -14 0 -10 3 -12 9 -7 5 6 12 82 15 170 3 88
8 196 11 240 4 44 6 90 6 103 -1 12 3 22 8 22 5 0 7 9 4 21 -4 12 0 25 8 30
12 8 11 11 -3 19 -13 8 -15 16 -7 43 11 40 12 90 1 83 -5 -3 -6 8 -4 24 2 17
9 27 14 24 7 -4 7 0 0 12 -9 20 -8 184 3 288 6 60 46 168 71 193 8 8 22 29 31
46 8 17 22 37 29 45 8 7 14 17 14 22 0 5 26 35 58 67 31 32 78 92 104 133 26
41 61 90 77 108 31 33 39 52 22 52 -5 0 4 28 21 62 28 59 37 89 43 153 1 17 8
43 14 58 13 32 15 60 4 54 -5 -3 -9 8 -10 24 -1 17 2 27 7 24 6 -4 10 0 10 7
0 7 -9 19 -20 26 -15 9 -18 19 -13 44 3 18 9 40 14 49 5 10 3 21 -4 28 -9 10
-8 11 4 6 13 -5 17 0 17 21 0 14 4 29 9 33 6 3 13 16 17 28 6 19 10 21 27 10
15 -9 18 -19 13 -39 -3 -16 -1 -28 4 -28 15 0 21 24 16 71 -3 33 -2 39 5 24 5
-11 10 -15 11 -10 1 6 3 15 5 20 1 6 3 19 3 30 1 12 14 25 31 33 17 7 32 23
35 38 6 21 9 24 22 14 12 -11 14 -9 12 10 -3 20 5 27 52 44 30 12 70 31 89 43
18 12 39 20 45 17 33 -11 66 -12 66 -1 0 12 46 67 55 67 9 0 5 -9 -11 -24 -25
-26 -5 -41 21 -16 17 16 24 18 27 8 3 -8 11 -1 21 17 9 17 17 23 17 15 0 -8 9
0 19 19 11 21 21 30 25 22 4 -6 -3 -25 -14 -42 -24 -32 -20 -50 5 -29 22 18
19 6 -10 -36 -32 -47 -35 -76 -5 -49 19 18 20 17 20 -2 0 -11 -3 -23 -7 -27
-10 -10 -12 -36 -3 -36 12 0 40 29 40 42 0 6 3 9 6 5 10 -9 -6 -47 -20 -47 -7
0 -23 -11 -36 -25 -33 -35 -20 -31 46 13 105 69 115 77 127 101 7 14 24 28 39
32 15 4 42 19 61 33 19 14 38 26 43 26 5 0 16 9 23 19 8 11 20 17 27 14 6 -2
15 0 19 6 10 17 25 13 18 -5 -4 -12 -2 -15 8 -12 8 3 13 10 12 15 -1 5 12 14
28 20 25 10 29 9 29 -5 0 -10 -13 -40 -29 -69 -29 -52 -30 -73 -4 -51 11 9 17
9 24 -3 6 -10 9 -10 9 -1 0 6 7 12 15 12 8 0 15 5 15 10 0 6 -9 10 -20 10 -35
0 -19 37 23 53 9 3 17 11 17 17 0 6 5 8 10 5 6 -3 10 -16 10 -28 0 -12 4 -28
9 -36 7 -11 13 -9 30 8 11 11 21 25 21 29 0 8 52 42 64 42 3 0 6 -4 6 -10 0
-5 -6 -10 -14 -10 -7 0 -20 -7 -27 -16 -12 -15 -10 -16 21 -9 19 4 40 11 46
16 6 5 19 7 28 3 10 -4 18 0 22 10 3 9 10 16 16 16 5 0 6 -4 3 -10 -14 -22 25
3 40 27 10 14 22 22 31 19 8 -3 14 0 14 6 0 7 6 3 14 -8 8 -10 18 -15 23 -11
8 9 9 14 12 43 0 8 6 12 12 9 6 -4 8 -14 5 -22 -4 -8 -2 -11 5 -7 6 3 3 -5 -6
-20 -10 -15 -15 -29 -11 -33 3 -3 6 -1 6 5 0 7 8 12 18 12 9 0 26 11 36 25 10
14 28 25 39 25 16 0 19 -5 14 -30 -6 -30 6 -42 17 -17 5 9 7 9 12 -1 3 -6 10
-10 15 -6 5 3 0 -11 -12 -30 -12 -21 -16 -36 -10 -36 10 0 45 48 55 75 2 6 7
7 11 3 4 -4 0 -14 -9 -23 -22 -22 -20 -28 4 -13 17 11 22 10 30 -2 8 -13 12
-12 25 8 l16 22 19 -22 c14 -18 15 -27 7 -45 -6 -13 -14 -23 -19 -23 -12 0
-68 -61 -68 -74 0 -5 9 0 20 12 32 34 44 26 21 -14 -12 -20 -23 -50 -25 -67
-3 -18 -7 -41 -11 -52 -7 -23 56 93 86 158 9 19 15 24 21 15 5 -9 8 -9 8 -1 0
18 51 74 61 67 5 -3 6 -11 2 -17 -4 -7 -8 -43 -10 -82 -1 -38 -7 -71 -12 -73
-11 -4 -5 -27 15 -56 12 -17 13 -16 12 12 -1 35 16 62 39 62 12 0 13 3 4 14
-10 12 -8 13 8 9 12 -3 21 -12 21 -19 0 -21 18 -17 30 6 6 11 7 20 3 20 -3 0
6 14 22 30 31 32 48 39 39 15 -3 -8 -3 -19 1 -26 11 -17 25 10 25 48 0 30 21
53 48 53 11 0 10 -25 -1 -36 -4 -4 -6 -26 -6 -48 1 -23 4 -31 6 -18 2 12 13
27 24 32 10 6 19 17 19 24 0 8 7 16 15 20 8 3 15 13 15 23 0 14 2 15 9 4 12
-18 2 -51 -16 -51 -11 0 -12 -4 -2 -22 8 -14 14 -18 17 -10 2 7 13 10 28 6 20
-5 26 -1 38 27 8 19 12 38 9 43 -4 5 -1 6 6 2 6 -4 14 1 19 14 8 21 8 21 26 1
23 -25 17 -55 -12 -59 -12 -2 -22 -10 -22 -19 0 -9 6 -13 15 -9 10 4 15 -1 15
-15 0 -14 5 -19 14 -16 8 3 19 0 25 -7 6 -7 21 -11 34 -9 17 3 25 -2 34 -26 7
-20 8 -29 1 -25 -6 4 -9 1 -6 -7 3 -9 17 -13 36 -12 19 1 32 -3 32 -10 0 -7 4
-6 10 3 13 20 24 6 12 -17 -5 -10 -12 -36 -15 -58 l-5 -40 15 35 c8 19 19 45
24 58 5 13 14 20 19 17 8 -5 7 -11 -1 -21 -9 -11 -8 -14 8 -14 16 0 19 -6 16
-32 l-4 -33 16 36 c9 20 27 41 41 47 13 7 24 16 24 22 0 5 5 10 11 10 6 0 9
-7 5 -15 -3 -8 -1 -15 4 -15 6 0 10 9 10 20 0 12 8 35 17 53 13 25 18 28 21
15 4 -19 22 -25 22 -7 0 5 5 7 11 4 6 -4 8 -13 5 -21 -3 -8 -1 -14 4 -14 6 0
10 4 10 9 0 5 12 16 26 26 20 13 28 14 34 5 4 -7 12 -10 18 -6 5 3 15 -1 22
-9 15 -18 36 -19 44 -2 5 9 7 9 12 0 4 -10 11 -10 26 -2 18 10 19 8 13 -11 -6
-19 -5 -20 13 -11 16 8 19 7 17 -7 -3 -33 -17 -72 -26 -72 -5 0 -9 -10 -9 -22
1 -23 1 -23 16 -3 51 68 74 81 74 44 0 -15 -5 -19 -15 -15 -8 3 -15 1 -15 -3
0 -5 7 -12 16 -15 14 -5 14 -9 3 -22 -11 -13 -10 -17 4 -26 13 -7 15 -13 7
-28 -13 -24 -13 -50 0 -50 6 0 10 7 10 16 0 9 5 13 13 10 6 -3 20 -9 30 -12 9
-4 17 -10 17 -15 0 -13 -18 -20 -23 -9 -3 6 -4 5 -3 -2 2 -7 9 -13 16 -13 7 0
14 -13 16 -28 2 -18 -1 -27 -9 -24 -7 2 -11 11 -9 21 6 36 -37 14 -51 -27 -5
-14 -2 -16 18 -11 25 6 25 6 20 -52 -5 -54 -4 -57 11 -38 8 10 13 13 9 7 -10
-21 14 -15 27 7 15 24 28 26 28 5 0 -8 -8 -15 -17 -15 -14 0 -14 -3 -5 -12 10
-10 15 -10 21 1 11 17 31 6 31 -18 0 -9 10 -28 21 -40 l22 -23 -37 5 -36 5 0
-45 c0 -28 4 -42 10 -38 7 4 9 -2 4 -19 -5 -21 -3 -26 12 -26 17 0 16 -3 -4
-18 -18 -14 -22 -24 -17 -45 8 -30 20 -35 29 -11 3 9 12 14 20 11 7 -3 19 0
25 6 8 8 11 1 13 -29 2 -57 -1 -79 -12 -82 -6 -2 -10 -12 -10 -23 0 -21 -16
-26 -22 -7 -3 9 -9 8 -21 -4 -22 -22 -23 -49 0 -41 11 4 14 3 9 -5 -4 -7 -16
-12 -27 -12 -20 0 -28 -34 -10 -44 5 -3 11 -18 14 -33 6 -32 -16 -63 -45 -63
-25 0 -23 -13 5 -25 14 -6 23 -21 25 -39 3 -22 6 -26 13 -15 7 11 9 11 9 -3 0
-21 -3 -21 -52 -7 -22 5 -38 16 -38 24 0 18 12 19 28 3 15 -15 24 -6 16 16 -9
23 -41 20 -49 -6 -8 -22 -52 -68 -66 -68 -5 0 -9 -9 -9 -20 0 -11 5 -20 11
-20 6 0 17 -6 24 -14 12 -11 7 -13 -32 -8 -35 4 -44 2 -38 -8 4 -7 2 -16 -5
-20 -9 -6 -4 -13 16 -24 l29 -17 -42 3 c-48 4 -54 -3 -20 -21 20 -10 19 -11
-12 -6 -49 7 -112 -12 -109 -33 2 -14 -5 -17 -39 -16 -41 2 -57 -9 -30 -19 6
-3 -5 -6 -25 -6 -25 -1 -37 -5 -35 -13 1 -7 -4 -12 -12 -10 -7 2 -11 -3 -9
-10 4 -9 -7 -13 -35 -15 -24 -1 -46 -8 -53 -17 -6 -9 -18 -16 -27 -16 -19 0
-29 -24 -15 -38 8 -8 4 -9 -11 -5 -12 3 -33 0 -46 -7 -27 -15 -45 -46 -20 -36
9 3 15 0 15 -9 0 -8 -5 -15 -11 -15 -7 0 -18 -8 -26 -17 -10 -14 -13 -14 -11
-3 2 8 -6 16 -19 18 -13 2 -23 -1 -23 -7 0 -16 -58 -41 -63 -27 -8 20 -42 -9
-45 -38 -3 -22 -7 -26 -24 -20 -18 5 -20 3 -14 -19 9 -36 -2 -57 -31 -57 -20
0 -23 -4 -18 -20 5 -15 3 -18 -9 -14 -11 4 -16 0 -16 -13 0 -10 -4 -23 -8 -28
-14 -17 -34 -91 -34 -126 0 -19 2 -65 5 -104 2 -38 0 -76 -6 -82 -6 -9 -5 -18
2 -27 7 -9 11 -45 10 -93 -1 -43 0 -82 1 -88 2 -5 -1 -21 -7 -35 -16 -39 -23
-99 -12 -106 5 -3 2 -18 -8 -35 -11 -19 -14 -32 -8 -37 6 -4 11 -20 11 -37 0
-28 5 -62 20 -142 3 -18 12 -38 20 -44 8 -6 14 -22 14 -35 0 -22 9 -50 33
-101 5 -12 7 -38 4 -57 -3 -19 -2 -36 3 -38 11 -4 -11 -128 -22 -128 -5 0 -8
-5 -8 -12 0 -6 -11 -26 -25 -44 -14 -18 -25 -35 -25 -37 0 -14 -75 -77 -90
-77 -10 0 -37 -16 -60 -35 -23 -19 -46 -35 -50 -35 -12 0 18 -93 33 -102 8 -4
20 -26 27 -49 14 -43 37 -61 49 -40 5 7 27 11 52 10 24 -1 49 0 54 2 18 5 55
-12 81 -38 15 -14 31 -22 40 -19 13 5 14 0 9 -23 -5 -24 -2 -29 16 -34 14 -4
27 0 34 9 9 13 14 13 37 -5 14 -12 33 -21 41 -21 8 0 17 -7 20 -15 7 -18 -9
-30 -16 -13 -4 10 -8 9 -16 -2 -14 -19 -14 -33 -1 -25 6 3 10 -1 10 -9 0 -9
-4 -16 -9 -16 -5 0 -8 -14 -7 -32 1 -21 8 -34 21 -39 16 -6 13 -8 -15 -9 -19
-2 -39 -2 -43 -1 -4 1 -10 -6 -13 -14 -4 -8 -18 -15 -34 -15 -28 0 -40 -15
-40 -51 0 -10 -6 -19 -14 -19 -9 0 -12 -7 -9 -21 4 -16 2 -20 -8 -17 -8 2 -15
19 -17 38 -3 26 0 32 12 27 10 -4 16 -1 16 7 0 9 -7 12 -20 9 -11 -3 -20 0
-20 6 0 6 -9 11 -20 11 -16 0 -20 -7 -20 -30 0 -21 -5 -30 -16 -30 -12 0 -15
6 -11 21 5 18 2 20 -16 15 -12 -3 -25 -6 -29 -6 -4 0 -14 -16 -23 -36 -8 -19
-19 -33 -24 -29 -6 3 -17 -9 -26 -26 -11 -21 -20 -28 -27 -21 -13 13 -45 4
-52 -15 -4 -9 -13 -12 -25 -8 -11 3 -30 -1 -43 -9 -27 -17 -78 -10 -78 10 0
21 -16 17 -47 -12 -27 -25 -32 -26 -113 -22 -47 3 -110 1 -140 -4 -100 -16
-109 -15 -126 3 -8 9 -35 23 -60 30 -24 7 -44 17 -44 21 0 7 -83 3 -148 -8
-19 -3 -40 0 -48 7 -8 6 -14 8 -14 4 0 -3 -12 3 -26 14 -16 13 -41 21 -64 21
-32 0 -43 -6 -72 -42 -39 -48 -52 -79 -44 -106 6 -17 38 -24 51 -11 2 3 36 4
75 3 38 -2 72 2 75 7 10 16 51 10 69 -10 10 -11 25 -17 37 -14 11 3 31 0 44
-7 18 -10 31 -10 47 -3 23 10 36 8 156 -33 46 -16 109 -31 167 -40 17 -3 37
-8 45 -11 8 -4 31 -8 50 -9 36 -2 84 -11 110 -21 8 -4 20 -7 25 -7 6 -1 11
-14 13 -30 l4 -29 18 30 c15 26 23 30 52 27 18 -2 38 -11 44 -19 8 -11 13 -12
23 -2 9 9 14 9 20 -1 6 -10 10 -10 21 3 14 17 95 21 119 6 9 -6 22 -6 35 1 16
9 24 6 43 -16 13 -15 23 -23 23 -19 0 4 6 -3 13 -17 8 -15 20 -24 30 -22 18 3
32 -19 25 -39 -3 -8 -9 -6 -21 5 -15 15 -17 15 -17 2 0 -9 5 -16 10 -16 6 0
10 -7 10 -15 0 -8 -7 -15 -15 -15 -8 0 -15 -7 -15 -15 0 -9 -9 -15 -25 -15
-18 0 -28 -7 -35 -24 -6 -18 -14 -23 -29 -19 -14 3 -23 -2 -33 -20 -12 -24
-15 -25 -50 -12 -34 11 -38 11 -38 -4 0 -14 -2 -14 -10 -1 -9 13 -10 13 -10 0
0 -13 -1 -13 -10 0 -6 9 -10 11 -10 3 0 -7 -7 -10 -17 -6 -9 4 -14 2 -11 -3 3
-5 -9 -10 -27 -11 -26 -1 -32 2 -28 13 3 8 0 14 -6 14 -6 0 -8 8 -4 18 4 12 3
14 -5 7 -7 -6 -13 -23 -14 -37 -2 -21 -7 -26 -25 -24 -13 2 -25 5 -28 8 -9 8
-55 -4 -55 -14 0 -6 -9 -8 -20 -5 -11 3 -20 2 -20 -2 0 -4 -45 -6 -100 -5 -95
4 -100 3 -91 -15 6 -10 8 -21 5 -24 -12 -11 8 -46 29 -53 12 -4 92 -8 177 -8
85 -1 160 -4 166 -8 13 -8 180 -21 247 -19 26 1 47 -2 47 -7 0 -6 15 -12 33
-16 30 -5 55 -12 67 -16 3 -2 30 -2 60 -1 76 2 156 -12 152 -27 -3 -16 9 -15
32 3 29 22 46 18 46 -10 0 -13 7 -43 16 -65 16 -40 16 -41 -7 -61 -20 -17 -21
-22 -9 -29 10 -6 11 -10 3 -10 -7 0 -10 -7 -7 -15 5 -11 -2 -14 -30 -11 -20 1
-36 -1 -36 -6 0 -15 -36 -45 -55 -45 -9 0 -29 11 -43 24 -30 28 -46 30 -32 4
15 -30 13 -33 -22 -27 -18 3 -27 3 -20 0 10 -5 7 -9 -9 -18 -22 -11 -30 -43
-31 -124 0 -18 -4 -23 -18 -19 -12 3 -17 0 -14 -8 3 -7 -2 -15 -10 -18 -9 -4
-16 -12 -16 -19 0 -17 33 -45 47 -41 6 2 14 -1 18 -6 3 -6 -1 -11 -9 -11 -9 0
-16 -7 -16 -15 0 -9 -6 -12 -17 -8 -15 5 -16 3 -5 -8 19 -20 15 -29 -13 -29
-30 0 -70 -33 -60 -49 3 -6 -1 -11 -9 -11 -9 0 -16 9 -16 20 0 22 -15 27 -23
8 -4 -10 -8 -9 -16 2 -10 14 -16 7 -12 -13 1 -5 -3 -6 -9 -2 -6 4 -26 -5 -44
-19 -23 -17 -40 -23 -56 -19 -14 4 -21 2 -17 -4 7 -10 -67 -12 -78 -1 -4 4
-13 4 -21 1 -10 -4 -13 0 -8 13 5 18 5 18 -6 1 -12 -18 -46 -25 -34 -6 4 8 -1
9 -17 4 -13 -4 -27 -12 -31 -18 -4 -6 -10 1 -13 16 -8 30 -25 27 -25 -4 0 -13
-7 -19 -21 -19 -18 0 -20 5 -16 26 3 18 2 23 -6 15 -6 -6 -12 -21 -12 -34 0
-12 -5 -22 -12 -22 -7 0 -18 -6 -24 -12 -7 -7 -19 -13 -26 -13 -7 0 -13 -4
-13 -10 0 -5 -4 -10 -10 -10 -5 0 -7 7 -3 16 5 14 2 16 -21 10 -14 -3 -36 -1
-47 5 -17 8 -23 8 -30 -2 -6 -10 -13 -10 -35 0 -24 10 -30 10 -47 -7 -19 -20
-19 -20 1 -26 13 -4 23 -20 28 -44 6 -30 8 -33 12 -14 3 22 4 22 17 6 8 -12
10 -26 4 -41 -10 -26 5 -40 25 -23 8 6 24 13 36 15 18 4 20 2 9 -11 -6 -8 -10
-15 -8 -17 2 -1 13 -7 24 -13 11 -6 20 -17 20 -24 0 -7 6 -15 13 -17 6 -3 12
3 12 12 0 13 4 14 20 5 15 -8 18 -15 11 -27 -6 -12 -1 -23 21 -41 24 -21 27
-27 16 -38 -7 -7 -37 -14 -65 -15 -52 -3 -76 -19 -28 -19 16 0 25 -6 25 -15 0
-8 -7 -15 -15 -15 -8 0 -30 -14 -49 -30 -21 -18 -37 -27 -41 -20 -4 7 -12 7
-25 0 -10 -5 -51 -12 -91 -16 -62 -5 -71 -4 -66 10 3 8 1 19 -6 23 -18 11 -89
3 -104 -13 -12 -12 -12 -14 4 -12 37 3 48 -3 65 -32 11 -18 25 -30 38 -30 12
0 30 -5 41 -10 14 -8 19 -7 20 2 0 7 4 4 9 -8 6 -15 21 -23 51 -28 24 -4 49
-11 55 -17 12 -10 277 -59 344 -64 53 -4 100 -16 100 -27 0 -5 4 -7 9 -3 5 3
41 0 80 -7 64 -11 71 -14 71 -35 0 -30 25 -30 35 0 6 20 8 20 12 3 3 -10 1
-21 -4 -25 -13 -8 -24 -41 -15 -41 4 0 8 -18 8 -40 1 -41 -11 -51 -34 -28 -9
9 -12 6 -12 -14 0 -18 -7 -29 -20 -33 -13 -4 -20 -15 -20 -31 0 -15 -6 -24
-15 -24 -8 0 -15 -8 -15 -17 0 -14 -2 -15 -9 -5 -6 10 -17 5 -44 -19 -39 -35
-47 -63 -21 -73 13 -5 14 -9 4 -22 -11 -12 -15 -12 -21 -2 -6 10 -17 3 -39
-24 -18 -21 -38 -38 -46 -38 -7 0 -16 -11 -20 -25 -4 -16 -13 -25 -26 -25 -15
0 -19 -5 -15 -20 6 -22 -12 -40 -42 -43 -21 -1 -39 -32 -27 -45 4 -3 -12 -14
-36 -23 -56 -22 -59 -37 -10 -45 39 -6 76 -35 78 -61 1 -7 2 -22 3 -33 0 -12
6 -17 15 -14 9 3 12 13 9 22 -5 14 -3 15 8 5 19 -19 73 -17 66 1 -4 9 0 14 11
14 9 -1 27 2 39 6 12 4 24 2 28 -4 4 -6 -4 -10 -18 -10 -21 0 -37 -16 -37 -36
0 -10 29 -3 39 10 19 23 59 25 77 5 10 -11 27 -20 38 -20 17 -1 18 -2 4 -6
-10 -2 -18 -9 -18 -14 0 -5 -7 -9 -16 -9 -8 0 -12 -5 -8 -11 3 -6 -6 -22 -22
-36 l-29 -25 35 7 35 7 -30 -26 c-30 -25 -30 -26 -8 -32 13 -3 20 -11 17 -16
-3 -5 -13 -7 -22 -3 -8 3 -19 1 -22 -6 -6 -8 -13 -8 -28 0 -20 11 -38 1 -24
-13 21 -22 -4 -96 -27 -82 -5 4 -16 4 -24 0 -19 -7 -19 -54 0 -61 16 -6 53 24
53 42 0 7 7 18 15 25 9 7 14 22 13 34 -3 21 21 31 102 41 l35 5 -32 -13 c-17
-6 -35 -15 -39 -19 -4 -5 -16 -8 -26 -8 -10 0 -18 -4 -18 -10 0 -5 9 -10 20
-10 11 0 20 -4 20 -10 0 -5 6 -7 14 -4 8 3 17 1 21 -5 3 -6 17 -11 31 -11 14
0 22 4 19 10 -3 6 4 11 17 11 13 1 30 2 39 3 21 1 59 35 59 53 0 7 4 13 10 13
5 0 7 -7 3 -16 -4 -12 0 -14 23 -8 16 3 34 13 40 20 15 18 32 18 50 -1 9 -8
20 -15 27 -15 6 0 3 6 -7 13 -16 12 -16 14 -2 26 9 8 16 25 17 40 0 25 1 25 9
4 11 -27 40 -20 40 9 0 17 3 18 15 8 8 -7 15 -20 15 -28 0 -12 3 -13 12 -4 7
7 20 12 29 12 22 0 33 28 18 46 -12 15 2 19 45 14 19 -2 65 45 66 68 0 17 20
15 20 -2 0 -8 -6 -16 -12 -19 -10 -3 -10 -8 -2 -16 8 -9 15 -6 27 12 9 13 29
27 46 30 26 6 31 11 31 36 0 23 5 30 29 34 28 6 33 14 51 77 5 16 8 19 9 8 0
-10 8 -18 16 -18 8 0 15 -5 15 -11 0 -6 6 -9 12 -7 7 3 13 10 13 16 0 7 3 12
8 12 44 0 69 -3 54 -7 -22 -6 -16 -29 7 -25 10 2 16 -4 16 -17 0 -11 5 -21 11
-23 21 -7 0 -42 -39 -66 -51 -32 -86 -61 -80 -68 3 -2 19 7 35 20 17 14 56 43
86 63 125 84 360 325 464 476 60 86 171 315 191 393 29 112 49 474 59 1064 7
444 7 492 1 583 -2 30 2 53 10 59 6 6 12 18 12 28 0 10 7 31 15 46 8 16 15 42
15 57 0 16 8 41 19 55 10 15 18 34 19 42 0 8 12 47 25 85 52 143 105 322 111
374 4 29 14 79 22 111 8 32 13 64 12 72 -2 10 11 13 52 13 138 1 273 89 360
236 22 38 45 69 50 69 13 0 86 110 104 156 57 144 62 379 16 749 -16 132 -37
275 -46 318 -14 64 -15 82 -4 102 7 14 10 37 6 57 -8 43 -55 116 -78 124 -12
3 -18 15 -18 35 0 16 3 29 8 29 4 0 6 19 4 41 -3 27 -1 39 6 35 6 -4 7 6 2 29
-9 39 -4 44 15 18 14 -18 12 -5 -10 95 -5 21 -4 32 4 32 7 0 9 17 5 51 -3 30
-2 49 3 46 6 -4 8 17 5 48 -5 67 3 106 22 99 10 -4 12 2 8 21 -3 17 -7 22 -12
15 -5 -8 -9 -7 -13 4 -4 9 -2 16 3 16 11 0 7 45 -11 130 -12 61 -15 83 -23
215 -3 58 -2 92 5 96 8 4 8 13 0 28 -7 12 -14 51 -18 89 -3 37 -14 87 -23 112
-9 25 -16 67 -15 95 2 48 -8 101 -26 137 -12 24 -11 41 2 32 8 -4 8 0 0 15 -7
11 -9 21 -6 21 3 0 -1 12 -8 28 -8 15 -12 32 -10 39 5 13 -76 143 -89 143 -5
0 -6 9 -3 20 3 11 2 20 -2 20 -5 0 -7 16 -5 36 3 23 1 34 -6 30 -5 -3 -13 6
-16 20 -4 14 -16 35 -26 47 -11 11 -20 30 -20 42 0 11 -6 27 -12 34 -11 11 -8
12 16 7 l29 -7 -29 35 c-16 19 -34 35 -40 35 -15 1 -26 29 -14 36 4 3 11 -1
13 -7 3 -8 6 -4 7 7 1 11 3 27 4 35 1 8 -3 21 -9 29 -8 12 -5 13 20 9 26 -5
27 -4 11 6 -10 6 -37 23 -60 38 -22 15 -46 28 -52 28 -13 0 -80 72 -76 83 1 4
-6 11 -15 14 -26 10 -53 36 -47 45 3 5 11 5 17 1 6 -4 1 6 -11 22 l-23 29 23
10 c22 9 22 9 3 13 -11 3 -24 9 -29 14 -6 5 -19 9 -31 9 -26 0 -45 18 -45 42
0 10 -7 21 -15 24 -8 4 -15 13 -15 22 0 18 -114 129 -128 124 -4 -1 -15 11
-25 26 -21 37 -118 112 -144 112 -11 0 -41 14 -66 31 -34 23 -47 37 -47 55 0
13 -4 24 -9 24 -5 0 -18 18 -29 40 -10 22 -22 37 -26 33 -3 -3 -9 8 -12 25 -6
27 -54 88 -54 67 0 -4 -8 1 -17 12 -10 11 -35 26 -55 34 -21 7 -38 17 -38 21
0 4 -7 8 -15 8 -8 0 -15 3 -15 8 0 4 -21 8 -48 10 -26 1 -52 8 -57 15 -19 23
-73 47 -119 53 -26 4 -49 11 -52 15 -3 5 -18 9 -34 9 -22 0 -28 4 -23 15 4 13
-1 15 -25 10 -25 -4 -32 -1 -38 17 -3 12 -17 33 -30 47 -13 14 -24 28 -24 32
0 19 -212 72 -250 62 -10 -3 -21 0 -24 6 -4 5 -13 8 -20 5 -8 -3 -16 5 -20 20
-3 14 -13 26 -22 26 -8 0 -22 7 -30 15 -8 8 -38 17 -66 21 -34 5 -52 12 -55
23 -3 11 -15 16 -41 15 -60 -2 -78 -12 -97 -55 -17 -37 -21 -40 -54 -37 -30 2
-39 9 -54 38 -16 31 -17 32 -14 9 l4 -26 -41 27 c-23 15 -59 33 -81 39 -22 7
-49 16 -60 21 -29 12 -66 17 -98 13z m1153 -3975 c0 -25 59 -138 75 -144 9 -4
14 -12 11 -20 -6 -15 35 -44 64 -44 12 0 18 -4 15 -10 -11 -18 11 -11 34 11
22 20 23 20 36 3 8 -11 12 -25 10 -32 -3 -7 -1 -10 4 -7 5 3 12 1 16 -5 4 -6
10 -8 15 -5 5 3 18 1 29 -4 12 -7 28 -8 43 -2 17 6 30 3 51 -11 15 -11 27 -17
27 -13 0 3 11 -2 25 -11 20 -13 25 -13 25 -3 0 10 3 10 8 3 4 -6 17 -14 30
-18 12 -4 27 -16 32 -27 9 -16 7 -19 -12 -20 l-23 0 23 -9 c12 -5 25 -16 28
-25 5 -12 9 -13 20 -4 11 9 14 7 14 -10 0 -28 25 -37 61 -24 16 7 29 7 29 2 0
-17 15 -9 25 13 6 12 16 23 23 24 7 1 8 0 2 -3 -19 -9 -10 -23 14 -23 13 0 26
-6 29 -14 7 -18 119 -30 129 -13 4 7 6 3 6 -9 -2 -16 -7 -20 -23 -17 -20 4
-20 4 -1 -11 18 -14 15 -21 -6 -17 -18 3 -6 -21 12 -26 18 -5 24 -14 22 -34 0
-3 3 -22 8 -43 5 -25 4 -50 -4 -74 -12 -33 -14 -35 -24 -17 -11 19 -12 19 -18
-2 -3 -13 -12 -23 -20 -23 -15 0 -36 -63 -22 -68 4 -2 6 -8 2 -13 -3 -5 2 -12
10 -15 9 -3 13 -10 10 -16 -3 -5 -11 -4 -20 3 -11 9 -14 8 -14 -3 0 -8 5 -19
12 -26 9 -9 9 -12 0 -12 -17 0 -43 -56 -39 -82 2 -13 2 -17 0 -10 -8 21 -21
13 -16 -10 11 -50 13 -54 23 -38 8 13 10 13 10 -2 0 -9 -6 -18 -12 -20 -10 -4
-10 -10 -1 -31 10 -21 10 -28 -1 -34 -7 -4 -15 -16 -19 -25 -5 -14 -2 -16 17
-8 33 12 38 3 15 -33 -10 -18 -19 -44 -19 -59 0 -36 -17 -79 -37 -93 -13 -10
-15 -22 -10 -60 6 -39 5 -45 -7 -36 -10 9 -16 8 -26 -4 -9 -11 -9 -15 -1 -15
8 0 7 -7 -3 -22 -20 -28 -20 -42 -1 -34 8 3 15 1 15 -5 0 -15 -31 -24 -39 -11
-11 18 -26 0 -29 -35 -2 -20 1 -33 8 -33 15 0 44 -29 36 -37 -3 -3 -11 -1 -18
4 -26 20 -45 22 -45 5 0 -10 4 -22 9 -29 14 -17 0 -70 -20 -78 -9 -3 -18 -1
-20 4 -5 16 -32 13 -32 -3 0 -8 4 -25 9 -38 5 -13 8 -26 7 -30 0 -4 8 -14 19
-22 17 -13 18 -15 3 -16 -9 0 -21 -7 -26 -16 -5 -9 -15 -14 -23 -12 -8 3 -19
-2 -25 -11 -10 -12 -15 -13 -27 -3 -12 10 -14 8 -10 -12 3 -14 11 -23 21 -22
9 0 17 -7 18 -17 1 -12 1 -13 -3 -2 -2 9 -12 14 -21 13 -10 -2 -21 7 -27 20
-12 27 -35 29 -35 4 0 -35 -13 -31 -41 13 -18 29 -41 50 -65 60 -42 17 -40 18
-48 -15 -3 -14 -3 -19 0 -12 8 17 24 15 24 -3 0 -8 -4 -15 -8 -15 -4 0 -9 -16
-10 -35 -2 -19 1 -35 6 -35 5 0 13 -28 16 -62 4 -34 12 -70 17 -79 5 -10 10
-36 11 -58 1 -23 4 -41 8 -41 3 0 5 -18 4 -41 -1 -28 1 -38 8 -31 14 14 38 4
38 -15 0 -11 -7 -14 -21 -10 -17 4 -19 3 -10 -6 6 -6 11 -21 11 -33 0 -13 5
-26 10 -29 6 -3 10 -12 10 -18 0 -7 -4 -7 -9 2 -8 12 -11 8 -17 -15 -4 -16 -7
-38 -6 -48 0 -10 -5 -31 -13 -46 -8 -15 -11 -30 -8 -34 4 -4 -3 -13 -15 -22
-12 -8 -22 -20 -22 -25 0 -11 -25 -39 -34 -39 -3 0 -5 3 -4 8 3 8 -11 10 -34
4 -9 -2 -14 -10 -12 -17 3 -7 -5 -15 -20 -19 -17 -4 -26 -13 -26 -26 0 -11 -7
-20 -15 -20 -8 0 -15 -5 -15 -11 0 -5 -4 -8 -10 -4 -5 3 -18 0 -29 -7 -18 -11
-23 -9 -41 10 -26 27 -26 58 -1 172 4 19 7 65 6 102 0 37 2 65 6 62 10 -6 20
42 12 62 -5 13 -3 16 9 11 9 -3 25 1 37 9 17 12 21 26 21 68 0 28 5 57 10 62
8 8 7 19 0 39 -9 22 -8 26 4 22 34 -13 42 57 10 84 -8 6 -14 17 -14 23 0 6
-11 19 -24 29 -21 16 -24 26 -23 90 l0 72 -31 3 c-24 2 -32 8 -32 22 0 10 -4
21 -10 25 -5 3 -7 12 -3 20 3 9 0 22 -6 29 -8 10 -9 16 -1 21 6 3 8 11 5 16
-4 5 1 9 10 9 9 0 13 5 10 10 -4 6 -10 8 -15 5 -5 -3 -12 0 -15 5 -9 15 3 62
14 55 5 -3 7 4 4 16 -4 12 0 25 8 30 9 6 10 12 4 17 -5 4 -11 14 -13 22 -2 8
-12 24 -22 35 -18 21 -26 40 -34 90 -3 16 -11 32 -17 34 -8 2 -8 5 0 11 9 5 9
14 1 34 -5 15 -14 25 -19 21 -5 -3 -12 -1 -16 5 -3 5 -1 10 6 10 8 0 7 5 -3
18 -8 9 -18 29 -21 43 -4 14 -17 41 -30 60 -13 19 -22 40 -19 47 2 7 -1 12 -6
12 -13 0 -72 120 -72 146 0 24 18 44 34 38 7 -3 22 7 35 20 l23 25 -23 32
c-16 23 -19 34 -11 37 10 3 10 7 1 18 -9 11 -6 15 19 20 38 8 47 29 24 54 -9
10 -26 47 -36 80 -16 53 -17 63 -5 72 11 8 11 9 -3 5 -10 -4 -22 3 -32 17 -13
21 -13 25 2 40 13 13 14 18 4 25 -19 12 -52 80 -35 74 8 -3 13 2 13 12 0 9 -5
13 -10 10 -6 -4 -18 -4 -28 0 -14 5 -14 7 -2 15 13 8 12 10 -2 10 -10 0 -18 5
-18 11 0 6 -7 9 -15 6 -18 -7 -31 11 -17 25 10 10 73 29 105 31 9 1 17 5 17 9
0 13 45 9 58 -4 9 -9 12 -9 12 -1 0 8 21 11 66 8 36 -1 63 -1 61 2 -11 10
-155 40 -185 37 -27 -2 -33 2 -38 22 -8 30 3 45 16 24 6 -8 10 -10 10 -5 0 6
8 1 16 -10 16 -20 16 -20 10 1 -4 12 -2 32 4 45 20 44 110 90 110 57z" fill="url(#pathFill2)" stroke="#F00" stroke-width="50" /> 
<pattern id="pathFill2" patternUnits="userSpaceOnUse" width="200" height="10" >
    <path stroke="#000" d="M 100,0 l 0,30" stroke-width="200"/>
</pattern>
<pattern id="pathFill1" patternUnits="userSpaceOnUse" width="100" height="25" >
    <path stroke="#1919FF" d="M 50,0 l 0,30" stroke-width="100"/>
</pattern>
<path  d="M4300 11268 c-14 -5 -33 -7 -42 -4 -12 3 -16 0 -11 -7 4 -8 1 -7 -9
1 -20 16 -62 1 -77 -27 -6 -11 -27 -25 -46 -31 -19 -6 -35 -15 -35 -20 0 -5
-8 -8 -17 -8 -10 0 -26 -3 -35 -7 -10 -4 -18 -3 -18 2 0 5 -25 10 -56 11 -32
1 -53 -2 -50 -7 3 -5 -8 -14 -26 -20 -38 -13 -48 -7 -19 11 12 7 21 16 21 19
0 11 -84 4 -105 -9 -18 -11 -17 -12 10 -6 l30 5 -25 -21 c-23 -21 -25 -21 -38
-3 -12 15 -14 15 -9 1 6 -18 -30 -32 -56 -23 -19 8 -62 -28 -53 -44 6 -9 12
-7 22 6 7 10 14 14 14 8 0 -5 5 -3 10 5 7 11 12 12 21 3 8 -8 6 -13 -10 -18
-12 -3 -21 -10 -21 -15 0 -5 -24 -8 -52 -7 -51 1 -117 -22 -90 -31 6 -2 12
-10 12 -18 0 -9 12 -14 36 -14 l35 0 -27 -35 c-26 -35 -73 -64 -103 -66 -11 0
-9 -4 7 -11 28 -14 29 -28 0 -20 -13 3 -19 1 -15 -5 4 -6 19 -14 33 -17 36 -9
72 -34 78 -54 5 -16 34 -19 116 -12 8 1 -7 12 -35 25 l-50 24 45 -5 45 -4 -30
15 -30 15 45 -6 c25 -3 56 -8 70 -10 53 -11 1 19 -57 32 l-58 13 55 -6 c30 -3
78 -14 105 -24 28 -11 43 -14 34 -7 -11 9 -14 19 -8 33 6 15 8 16 8 4 1 -22
53 -32 64 -13 7 11 13 10 37 -8 24 -18 30 -29 31 -62 l1 -41 11 33 c11 30 14
31 28 16 20 -19 99 -32 99 -15 0 6 -9 11 -20 11 -11 0 -20 5 -20 10 0 13 17
12 65 -5 50 -18 50 -18 35 0 -7 8 -9 15 -4 15 5 0 3 4 -5 9 -21 14 -4 33 19
21 10 -5 29 -7 42 -2 45 14 200 4 323 -22 6 -1 26 -10 44 -20 27 -15 48 -17
95 -13 43 4 66 2 79 -8 13 -10 15 -14 5 -18 -9 -3 -8 -9 7 -20 11 -8 23 -13
27 -11 4 2 9 0 13 -6 7 -12 -66 -12 -110 0 -16 5 -75 11 -130 14 -55 3 -118
10 -140 15 -49 13 -67 13 -40 0 17 -8 16 -8 -5 -3 -14 4 -41 6 -60 6 -19 -1
-37 3 -40 7 -3 4 -27 11 -55 15 -43 5 -47 4 -31 -7 16 -12 17 -15 5 -23 -21
-13 -39 -17 -89 -19 -81 -3 -205 -18 -192 -22 26 -9 10 -21 -36 -28 -39 -5
-48 -10 -49 -27 -1 -11 -10 -26 -20 -33 -10 -7 -16 -15 -13 -17 3 -2 14 -8 25
-14 27 -15 30 -40 5 -47 -26 -7 -26 -24 0 -32 11 -3 20 -13 20 -21 0 -13 13
-14 81 -10 69 5 80 3 75 -9 -6 -15 14 -20 63 -16 33 3 56 28 42 45 -9 11 1 19
54 40 83 33 90 33 93 -5 4 -45 26 -82 78 -127 25 -23 43 -46 39 -52 -3 -6 -11
-8 -16 -5 -5 4 -9 -6 -9 -20 0 -15 4 -24 10 -20 6 4 8 11 5 16 -4 5 1 9 9 9 9
0 16 7 16 15 0 8 7 15 16 15 8 0 13 -4 10 -9 -3 -5 4 -11 15 -14 14 -4 19 -1
16 7 -4 9 2 11 19 8 13 -2 22 -8 19 -12 -3 -5 6 -21 20 -37 l24 -28 1 28 c0
19 -5 27 -17 27 -10 1 -2 8 18 18 64 30 103 77 128 154 7 20 21 40 31 43 22 7
93 -27 112 -53 7 -10 28 -25 46 -33 18 -8 35 -22 38 -31 4 -12 15 -17 40 -16
37 1 69 -18 43 -26 -8 -2 -21 -7 -29 -9 -8 -3 0 -6 18 -6 22 -1 32 4 32 14 0
8 7 15 15 15 19 0 19 4 0 40 -8 16 -16 37 -18 47 -2 10 -8 27 -14 38 -6 11 -8
25 -6 32 2 6 -4 20 -14 31 -10 11 -31 33 -46 51 -16 17 -35 31 -43 31 -20 0
-17 20 4 20 16 1 16 1 0 14 -30 22 -22 44 20 50 51 9 115 5 130 -7 8 -7 12 -5
12 8 0 15 3 15 15 5 12 -10 22 -10 39 -2 20 9 25 8 31 -6 4 -10 9 -13 13 -6
10 16 45 13 58 -4 9 -13 14 -7 27 29 28 78 30 89 13 89 -16 0 -22 26 -18 83 2
30 -14 38 -21 10 -3 -15 -6 -13 -17 10 -9 19 -19 26 -30 22 -12 -4 -19 1 -23
15 -4 15 0 20 16 21 18 0 15 4 -13 17 -47 22 -47 22 -30 32 11 7 4 14 -30 28
-28 12 -47 15 -51 9 -4 -5 -46 -11 -95 -12 -81 -3 -86 -2 -63 12 23 14 22 14
-19 8 -29 -3 -41 -2 -37 5 8 13 4 13 -39 -5 -39 -16 -100 -11 -74 7 9 6 6 7
-9 3 -27 -7 -75 4 -67 16 6 10 -6 12 -51 9 -29 -1 -29 -1 -10 14 20 15 20 15
-2 37 -19 19 -26 21 -45 12 -38 -18 -58 -23 -58 -14 0 5 6 12 13 14 7 3 4 6
-6 6 -11 1 -15 6 -11 12 5 8 0 10 -17 6 -13 -4 -35 -10 -49 -13 l-25 -7 25 21
c14 12 21 21 15 21 -14 0 -45 -24 -45 -35 0 -5 -9 -15 -21 -22 -19 -12 -19
-11 -10 7 8 14 8 22 0 27 -8 4 -7 9 2 15 21 13 7 18 -21 7z"  fill="url(#pathFill1)" stroke="#fff" stroke-width="5" />
<path  d="M2693 10270 c-53 -12 -135 -57 -175 -95 -20 -19 -41 -34 -45 -33 -4
2 -9 -1 -10 -6 -1 -5 -7 -12 -14 -17 -10 -6 -10 -11 2 -25 11 -13 11 -18 2
-21 -7 -3 -13 -14 -13 -26 1 -19 2 -20 13 -6 7 9 32 29 56 45 24 16 56 37 70
47 57 38 128 67 165 67 l40 0 -32 33 c-18 18 -29 36 -26 40 4 4 5 7 3 6 -2 -1
-18 -4 -36 -9z"  fill="none" stroke="#fff" stroke-width="5" />
<path  d="M5188 9227 c-46 -15 -148 -136 -125 -148 16 -9 57 0 57 12 0 5 9 9
19 9 11 0 23 5 27 11 4 8 22 9 53 4 80 -14 147 -10 176 9 21 14 29 15 35 6 9
-14 40 -7 40 9 0 18 -66 61 -124 81 -62 22 -104 24 -158 7z"  fill="none" stroke="#fff" stroke-width="5" />
<path  d="M2990 9015 c-10 -26 -4 -55 12 -55 5 0 6 -15 3 -34 -4 -20 -2 -36 4
-40 5 -4 8 -13 5 -20 -3 -8 -1 -17 5 -21 6 -3 11 -17 11 -29 0 -28 39 -81 40
-55 0 9 -7 19 -15 23 -20 7 -19 26 1 26 12 0 15 11 13 58 -1 33 1 63 4 69 6 9
-10 66 -26 91 -14 21 -47 14 -57 -13z"  fill="none" stroke="#fff" stroke-width="5" />

<path  d="M5033 4898 c-46 -68 -55 -82 -130 -202 -40 -64 -73 -117 -73 -120 0
-2 -15 -30 -33 -63 -17 -32 -38 -76 -46 -98 -8 -22 -42 -98 -76 -170 -34 -71
-69 -150 -79 -175 -10 -25 -22 -53 -28 -63 -21 -42 -86 -236 -92 -280 -9 -58
9 -64 19 -7 4 25 12 40 21 40 8 0 14 5 14 11 0 6 19 30 43 52 23 23 50 58 60
78 12 27 25 38 47 42 33 7 80 -7 80 -22 0 -6 24 -22 53 -35 79 -38 197 -142
270 -238 18 -24 27 -49 27 -73 0 -20 5 -45 11 -56 8 -15 7 -30 -4 -57 -8 -20
-18 -59 -22 -87 -5 -34 -21 -71 -50 -115 -58 -88 -94 -151 -171 -305 -175
-347 -217 -492 -248 -865 -25 -305 -28 -410 -16 -565 9 -113 9 -187 1 -300 -6
-82 -16 -213 -22 -290 -6 -77 -22 -214 -35 -305 -14 -91 -32 -208 -39 -260 -8
-52 -24 -156 -35 -230 -11 -74 -20 -136 -20 -137 0 -2 464 -3 1031 -3 l1032 0
-7 143 c-15 287 -47 686 -61 757 -3 14 -9 72 -15 130 -5 58 -16 170 -24 250
-8 80 -18 177 -21 215 -16 178 -69 458 -139 730 -9 33 -33 132 -54 220 -22 88
-54 196 -71 240 -45 113 -151 367 -162 387 -5 10 -12 43 -15 75 -4 32 -17 101
-30 153 -13 52 -24 120 -24 150 0 33 -4 50 -9 42 -14 -23 -29 87 -21 158 4 36
6 75 5 88 -1 14 3 22 13 22 11 0 13 -9 9 -40 -3 -22 -1 -43 4 -46 5 -3 9 12 9
33 1 59 16 113 39 134 12 11 21 26 21 33 0 13 61 66 76 66 4 0 26 16 50 35 23
19 49 35 57 35 8 0 18 11 21 25 4 14 13 25 21 25 8 0 15 5 15 10 0 6 11 15 24
20 13 5 27 18 30 28 5 14 13 18 26 15 17 -5 15 9 -26 133 -25 77 -71 190 -102
253 -62 125 -223 378 -246 387 -8 3 -36 -6 -62 -19 -84 -42 -248 -97 -439
-146 -43 -11 -147 1 -297 35 -63 14 -75 19 -62 28 8 7 14 16 12 22 -5 17 36
51 60 49 25 -2 30 13 7 21 -8 3 -17 14 -20 25 -11 35 -52 24 -82 -23z"  fill="url(#pathFill3)" stroke="#f00" stroke-width="50" />
<pattern id="pathFill3" patternUnits="userSpaceOnUse" width="100" height="30" >
    <path stroke="#000" d="M 50,0 l 0,50" stroke-width="100"/>
</pattern>
</g>
</svg>
