<svg  xmlns="http://www.w3.org/2000/svg" viewBox="51.894982910156244 15.200659179687499 396.2100341796875 119.598681640625" style="background:transparent;" preserveAspectRatio="xMidYMid"><defs><filter id="editing-vintage" x="-100%" y="-100%" width="300%" height="300%"><feConvolveMatrix in="SourceGraphic" result="extrude" order="4,4" divisor="1" kernelMatrix="1,0,0,0,0,1,0,0,0,0,1,0,0,0,0,1"> </feConvolveMatrix><feFlood flood-color="#900" result="flood-extrude"></feFlood><feComposite operator="in" in="flood-extrude" in2="extrude" result="extrude-color"></feComposite><feOffset dx="2" dy="2" in="extrude-color" result="extrude-offset"></feOffset><feColorMatrix in="SourceGraphic" result="stroke" type="matrix" values="0 0 0 0 0 0 0 0 0 0 0 0 0 0 0 0 1 0 0 0 "></feColorMatrix><feColorMatrix in="SourceGraphic" result="fill" type="matrix" values="0 0 0 0 0 0 0 0 0 0 0 0 0 0 0 1 0 0 1 0 "></feColorMatrix><feConvolveMatrix in="stroke" result="inner-shadow" order="5,5" divisor="1" kernelMatrix="1 0 0 0 0 0 1 0 0 0 0 0 1 0 0 0 0 0 1 0 0 0 0 0 1 "></feConvolveMatrix><feOffset dx="1" dy="1" in="inner-shadow" result="offset"></feOffset><feComposite operator="in" in="offset" in2="SourceAlpha" result="comp"></feComposite><feFlood flood-color="#000" result="flood3"></feFlood><feComposite operator="in" in="flood3" in2="comp" result="comp2"></feComposite><feColorMatrix in="comp2" result="comp3" type="matrix" values="1 0 0 0 0 0 1 0 0 0 0 0 1 0 0 0 0 0 0.5 0 "></feColorMatrix><feFlood flood-color="#f00" result="flood1"></feFlood><feComposite operator="in" in="flood1" in2="fill" result="fill2"></feComposite><feFlood flood-color="#fff" result="flood2"></feFlood><feComposite operator="in" in="flood2" in2="stroke" result="stroke2"></feComposite><feMerge result="obj"><feMergeNode in="extrude-offset"></feMergeNode><feMergeNode in="fill2"></feMergeNode><feMergeNode in="comp3"></feMergeNode></feMerge><feConvolveMatrix in="SourceAlpha" result="shadow" order="4,4" divisor="1" kernelMatrix="1,0,0,0,0,1,0,0,0,0,1,0,0,0,0,1"></feConvolveMatrix><feOffset dx="6" dy="6" in="shadow" result="shadow-offset"></feOffset><feFlood flood-color="#444444" result="flood-shadow"></feFlood><feComposite operator="in" in="flood-shadow" in2="shadow-offset" result="shadow-color"></feComposite><feMerge><feMergeNode in="shadow-color"></feMergeNode><feMergeNode in="obj"></feMergeNode></feMerge></filter></defs><g transform="translate(-4,-4)"><g filter="url(#editing-vintage)"><g transform="translate(110.87937307357788, 98.06781196594238)"><path d="M2.65-39.06L2.65-39.06L2.65-39.06Q3.53-40.82 5.45-41.80L5.45-41.80L5.45-41.80Q7.37-42.78 10.02-42.78L10.02-42.78L10.02-42.78Q14.18-42.78 16.66-39.78L16.66-39.78L16.66-39.78Q19.15-36.79 19.15-30.24L19.15-30.24L19.15-7.75L33.58-41.52L41.01-41.52L42.71-9.64L42.52-7.81L57.52-41.52L66.15-41.52L45.99 0L32.57 0L31.31-19.15L23.00 0L7.81 0L5.92-30.24L5.92-30.24Q5.73-33.64 4.82-35.88L4.82-35.88L4.82-35.88Q3.91-38.12 2.65-39.06ZM87.88-10.65L87.88-10.65L87.88-10.65Q89.46-9.58 89.46-7.21L89.46-7.21L89.46-7.21Q89.46-4.85 88.26-3.34L88.26-3.34L88.26-3.34Q87.07-1.83 85.11-0.82L85.11-0.82L85.11-0.82Q81.08 1.26 76.73 1.26L76.73 1.26L76.73 1.26Q72.39 1.26 69.84 0.32L69.84 0.32L69.84 0.32Q67.28-0.63 65.58-2.39L65.58-2.39L65.58-2.39Q62.24-5.73 62.24-11.84L62.24-11.84L62.24-11.84Q62.24-21.36 67.41-27.15L67.41-27.15L67.41-27.15Q72.95-33.39 82.59-33.39L82.59-33.39L82.59-33.39Q88.58-33.39 91.54-30.87L91.54-30.87L91.54-30.87Q93.74-28.98 93.74-25.89L93.74-25.89L93.74-25.89Q93.74-14.80 74.59-14.80L74.59-14.80L74.59-14.80Q74.34-13.17 74.34-11.78L74.34-11.78L74.34-11.78Q74.34-8.88 75.63-7.78L75.63-7.78L75.63-7.78Q76.92-6.68 79.32-6.68L79.32-6.68L79.32-6.68Q81.71-6.68 84.26-7.78L84.26-7.78L84.26-7.78Q86.81-8.88 87.88-10.65ZM75.03-17.51L75.03-17.51L75.03-17.51Q79.51-17.51 82.09-20.29L82.09-20.29L82.09-20.29Q84.67-22.93 84.67-27.15L84.67-27.15L84.67-27.15Q84.67-28.60 84.14-29.39L84.14-29.39L84.14-29.39Q83.60-30.18 82.53-30.18L82.53-30.18L82.53-30.18Q81.46-30.18 80.55-29.77L80.55-29.77L80.55-29.77Q79.63-29.36 78.69-27.97L78.69-27.97L78.69-27.97Q76.36-24.82 75.03-17.51ZM110.94-3.46L110.94-3.46L110.94-3.46Q108.99 1.26 102.75 1.26L102.75 1.26L102.75 1.26Q99.60 1.26 97.59-0.95L97.59-0.95L97.59-0.95Q95.95-2.77 95.95-4.85L95.95-4.85L95.95-4.85Q95.95-9.58 98.15-19.91L98.15-19.91L102.75-44.10L115.54-45.36L109.43-13.48L109.43-13.48Q108.36-8.82 108.36-7.18L108.36-7.18L108.36-7.18Q108.36-3.59 110.94-3.46ZM147.23-26.21L147.23-26.21L147.23-26.21Q147.23-23.56 145.03-21.92L145.03-21.92L145.03-21.92Q142.82-20.29 139.23-20.29L139.23-20.29L139.23-20.29Q137.72-20.29 136.84-20.73L136.84-20.73L136.84-20.73Q137.53-22.36 137.75-24.41L137.75-24.41L137.75-24.41Q137.97-26.46 137.97-27.03L137.97-27.03L137.97-27.03Q137.97-29.67 136.14-29.67L136.14-29.67L136.14-29.67Q134.88-29.67 133.47-28.10L133.47-28.10L133.47-28.10Q132.05-26.52 130.85-24.07L130.85-24.07L130.85-24.07Q128.21-18.40 128.21-12.66L128.21-12.66L128.21-12.66Q128.21-9.51 129.40-8.10L129.40-8.10L129.40-8.10Q130.60-6.68 133.25-6.68L133.25-6.68L133.25-6.68Q136.90-6.68 139.80-9.70L139.80-9.70L139.80-9.70Q140.62-10.65 141.06-11.72L141.06-11.72L141.06-11.72Q143.45-10.46 143.45-6.99L143.45-6.99L143.45-6.99Q143.45-3.46 139.55-1.13L139.55-1.13L139.55-1.13Q135.51 1.26 129.09 1.26L129.09 1.26L129.09 1.26Q116.30 1.26 116.30-12.29L116.30-12.29L116.30-12.29Q116.30-22.18 121.91-27.85L121.91-27.85L121.91-27.85Q127.32-33.39 137.28-33.39L137.28-33.39L137.28-33.39Q147.23-33.39 147.23-26.21ZM162.67 1.26L162.67 1.26L162.67 1.26Q148.81 1.26 148.81-11.78L148.81-11.78L148.81-11.78Q148.81-21.04 153.91-27.03L153.91-27.03L153.91-27.03Q159.33-33.39 168.71-33.39L168.71-33.39L168.71-33.39Q175.52-33.39 178.98-30.24L178.98-30.24L178.98-30.24Q182.45-27.09 182.45-20.48L182.45-20.48L182.45-20.48Q182.45-10.39 177.03-4.54L177.03-4.54L177.03-4.54Q171.74 1.26 162.67 1.26ZM164.30-26.14L164.30-26.14L164.30-26.14Q163.55-24.44 162.95-21.89L162.95-21.89L162.95-21.89Q162.35-19.34 161.59-15.31L161.59-15.31L161.59-15.31Q160.84-11.28 160.84-6.30L160.84-6.30L160.84-6.30Q160.84-4.66 161.37-3.59L161.37-3.59L161.37-3.59Q161.91-2.52 163.36-2.52L163.36-2.52L163.36-2.52Q164.81-2.52 165.72-3.21L165.72-3.21L165.72-3.21Q166.63-3.91 167.33-5.54L167.33-5.54L167.33-5.54Q168.59-8.44 169.60-13.83L169.60-13.83L169.60-13.83Q170.60-19.21 170.70-21.55L170.70-21.55L170.70-21.55Q170.79-23.88 170.79-25.61L170.79-25.61L170.79-25.61Q170.79-27.34 170.29-28.48L170.29-28.48L170.29-28.48Q169.78-29.61 168.37-29.61L168.37-29.61L168.37-29.61Q166.95-29.61 166.00-28.73L166.00-28.73L166.00-28.73Q165.06-27.85 164.30-26.14ZM231.52 1.26L231.52 1.26L231.52 1.26Q223.90 1.26 223.90-4.66L223.90-4.66L223.90-4.66Q223.90-7.25 225.00-12.25L225.00-12.25L225.00-12.25Q226.11-17.26 226.48-19.28L226.48-19.28L226.48-19.28Q227.37-23.88 227.37-25.33L227.37-25.33L227.37-25.33Q227.37-28.54 224.97-28.54L224.97-28.54L224.97-28.54Q223.40-28.54 221.89-26.37L221.89-26.37L221.89-26.37Q220.37-24.19 219.68-19.84L219.68-19.84L215.78 0L203.49 1.26L206.89-15.88L206.89-15.88Q207.46-18.71 207.96-21.92L207.96-21.92L207.96-21.92Q208.47-25.14 208.47-25.64L208.47-25.64L208.47-25.64Q208.47-28.54 206.32-28.54L206.32-28.54L206.32-28.54Q204.88-28.54 203.30-26.40L203.30-26.40L203.30-26.40Q201.73-24.25 200.84-19.84L200.84-19.84L197.00 0L184.59 1.26L191.20-32.13L201.47-33.39L200.40-27.03L200.40-27.03Q202.04-30.43 205.06-31.91L205.06-31.91L205.06-31.91Q208.09-33.39 212.81-33.39L212.81-33.39L212.81-33.39Q215.52-33.39 217.29-32.07L217.29-32.07L217.29-32.07Q219.05-30.74 219.62-28.60L219.62-28.60L219.62-28.60Q220.69-30.81 223.43-32.10L223.43-32.10L223.43-32.10Q226.17-33.39 229.54-33.39L229.54-33.39L229.54-33.39Q232.91-33.39 234.58-32.67L234.58-32.67L234.58-32.67Q236.25-31.94 237.26-30.74L237.26-30.74L237.26-30.74Q238.96-28.54 238.96-24.51L238.96-24.51L238.96-24.51Q238.96-20.54 237.26-12.29L237.26-12.29L237.26-12.29Q236.38-8.25 236.38-6.77L236.38-6.77L236.38-6.77Q236.38-5.29 237.23-4.41L237.23-4.41L237.23-4.41Q238.08-3.53 239.34-3.40L239.34-3.40L239.34-3.40Q238.71-1.26 236.53 0L236.53 0L236.53 0Q234.36 1.26 231.52 1.26ZM269.70-10.65L269.70-10.65L269.70-10.65Q271.28-9.58 271.28-7.21L271.28-7.21L271.28-7.21Q271.28-4.85 270.08-3.34L270.08-3.34L270.08-3.34Q268.88-1.83 266.93-0.82L266.93-0.82L266.93-0.82Q262.90 1.26 258.55 1.26L258.55 1.26L258.55 1.26Q254.20 1.26 251.65 0.32L251.65 0.32L251.65 0.32Q249.10-0.63 247.40-2.39L247.40-2.39L247.40-2.39Q244.06-5.73 244.06-11.84L244.06-11.84L244.06-11.84Q244.06-21.36 249.23-27.15L249.23-27.15L249.23-27.15Q254.77-33.39 264.41-33.39L264.41-33.39L264.41-33.39Q270.40-33.39 273.36-30.87L273.36-30.87L273.36-30.87Q275.56-28.98 275.56-25.89L275.56-25.89L275.56-25.89Q275.56-14.80 256.41-14.80L256.41-14.80L256.41-14.80Q256.16-13.17 256.16-11.78L256.16-11.78L256.16-11.78Q256.16-8.88 257.45-7.78L257.45-7.78L257.45-7.78Q258.74-6.68 261.13-6.68L261.13-6.68L261.13-6.68Q263.53-6.68 266.08-7.78L266.08-7.78L266.08-7.78Q268.63-8.88 269.70-10.65ZM256.85-17.51L256.85-17.51L256.85-17.51Q261.32-17.51 263.91-20.29L263.91-20.29L263.91-20.29Q266.49-22.93 266.49-27.15L266.49-27.15L266.49-27.15Q266.49-28.60 265.95-29.39L265.95-29.39L265.95-29.39Q265.42-30.18 264.35-30.18L264.35-30.18L264.35-30.18Q263.28-30.18 262.36-29.77L262.36-29.77L262.36-29.77Q261.45-29.36 260.50-27.97L260.50-27.97L260.50-27.97Q258.17-24.82 256.85-17.51Z" fill="#f00" stroke="#0f0" stroke-width="1.8"></path></g></g><g><g transform="translate(110.87937307357788, 98.29437446594238)"><path d="M2.65-39.06L2.65-39.06L2.65-39.06Q3.53-40.82 5.45-41.80L5.45-41.80L5.45-41.80Q7.37-42.78 10.02-42.78L10.02-42.78L10.02-42.78Q14.18-42.78 16.66-39.78L16.66-39.78L16.66-39.78Q19.15-36.79 19.15-30.24L19.15-30.24L19.15-7.75L33.58-41.52L41.01-41.52L42.71-9.64L42.52-7.81L57.52-41.52L66.15-41.52L45.99 0L32.57 0L31.31-19.15L23.00 0L7.81 0L5.92-30.24L5.92-30.24Q5.73-33.64 4.82-35.88L4.82-35.88L4.82-35.88Q3.91-38.12 2.65-39.06ZM87.88-10.65L87.88-10.65L87.88-10.65Q89.46-9.58 89.46-7.21L89.46-7.21L89.46-7.21Q89.46-4.85 88.26-3.34L88.26-3.34L88.26-3.34Q87.07-1.83 85.11-0.82L85.11-0.82L85.11-0.82Q81.08 1.26 76.73 1.26L76.73 1.26L76.73 1.26Q72.39 1.26 69.84 0.32L69.84 0.32L69.84 0.32Q67.28-0.63 65.58-2.39L65.58-2.39L65.58-2.39Q62.24-5.73 62.24-11.84L62.24-11.84L62.24-11.84Q62.24-21.36 67.41-27.15L67.41-27.15L67.41-27.15Q72.95-33.39 82.59-33.39L82.59-33.39L82.59-33.39Q88.58-33.39 91.54-30.87L91.54-30.87L91.54-30.87Q93.74-28.98 93.74-25.89L93.74-25.89L93.74-25.89Q93.74-14.80 74.59-14.80L74.59-14.80L74.59-14.80Q74.34-13.17 74.34-11.78L74.34-11.78L74.34-11.78Q74.34-8.88 75.63-7.78L75.63-7.78L75.63-7.78Q76.92-6.68 79.32-6.68L79.32-6.68L79.32-6.68Q81.71-6.68 84.26-7.78L84.26-7.78L84.26-7.78Q86.81-8.88 87.88-10.65ZM75.03-17.51L75.03-17.51L75.03-17.51Q79.51-17.51 82.09-20.29L82.09-20.29L82.09-20.29Q84.67-22.93 84.67-27.15L84.67-27.15L84.67-27.15Q84.67-28.60 84.14-29.39L84.14-29.39L84.14-29.39Q83.60-30.18 82.53-30.18L82.53-30.18L82.53-30.18Q81.46-30.18 80.55-29.77L80.55-29.77L80.55-29.77Q79.63-29.36 78.69-27.97L78.69-27.97L78.69-27.97Q76.36-24.82 75.03-17.51ZM110.94-3.46L110.94-3.46L110.94-3.46Q108.99 1.26 102.75 1.26L102.75 1.26L102.75 1.26Q99.60 1.26 97.59-0.95L97.59-0.95L97.59-0.95Q95.95-2.77 95.95-4.85L95.95-4.85L95.95-4.85Q95.95-9.58 98.15-19.91L98.15-19.91L102.75-44.10L115.54-45.36L109.43-13.48L109.43-13.48Q108.36-8.82 108.36-7.18L108.36-7.18L108.36-7.18Q108.36-3.59 110.94-3.46ZM147.23-26.21L147.23-26.21L147.23-26.21Q147.23-23.56 145.03-21.92L145.03-21.92L145.03-21.92Q142.82-20.29 139.23-20.29L139.23-20.29L139.23-20.29Q137.72-20.29 136.84-20.73L136.84-20.73L136.84-20.73Q137.53-22.36 137.75-24.41L137.75-24.41L137.75-24.41Q137.97-26.46 137.97-27.03L137.97-27.03L137.97-27.03Q137.97-29.67 136.14-29.67L136.14-29.67L136.14-29.67Q134.88-29.67 133.47-28.10L133.47-28.10L133.47-28.10Q132.05-26.52 130.85-24.07L130.85-24.07L130.85-24.07Q128.21-18.40 128.21-12.66L128.21-12.66L128.21-12.66Q128.21-9.51 129.40-8.10L129.40-8.10L129.40-8.10Q130.60-6.68 133.25-6.68L133.25-6.68L133.25-6.68Q136.90-6.68 139.80-9.70L139.80-9.70L139.80-9.70Q140.62-10.65 141.06-11.72L141.06-11.72L141.06-11.72Q143.45-10.46 143.45-6.99L143.45-6.99L143.45-6.99Q143.45-3.46 139.55-1.13L139.55-1.13L139.55-1.13Q135.51 1.26 129.09 1.26L129.09 1.26L129.09 1.26Q116.30 1.26 116.30-12.29L116.30-12.29L116.30-12.29Q116.30-22.18 121.91-27.85L121.91-27.85L121.91-27.85Q127.32-33.39 137.28-33.39L137.28-33.39L137.28-33.39Q147.23-33.39 147.23-26.21ZM162.67 1.26L162.67 1.26L162.67 1.26Q148.81 1.26 148.81-11.78L148.81-11.78L148.81-11.78Q148.81-21.04 153.91-27.03L153.91-27.03L153.91-27.03Q159.33-33.39 168.71-33.39L168.71-33.39L168.71-33.39Q175.52-33.39 178.98-30.24L178.98-30.24L178.98-30.24Q182.45-27.09 182.45-20.48L182.45-20.48L182.45-20.48Q182.45-10.39 177.03-4.54L177.03-4.54L177.03-4.54Q171.74 1.26 162.67 1.26ZM164.30-26.14L164.30-26.14L164.30-26.14Q163.55-24.44 162.95-21.89L162.95-21.89L162.95-21.89Q162.35-19.34 161.59-15.31L161.59-15.31L161.59-15.31Q160.84-11.28 160.84-6.30L160.84-6.30L160.84-6.30Q160.84-4.66 161.37-3.59L161.37-3.59L161.37-3.59Q161.91-2.52 163.36-2.52L163.36-2.52L163.36-2.52Q164.81-2.52 165.72-3.21L165.72-3.21L165.72-3.21Q166.63-3.91 167.33-5.54L167.33-5.54L167.33-5.54Q168.59-8.44 169.60-13.83L169.60-13.83L169.60-13.83Q170.60-19.21 170.70-21.55L170.70-21.55L170.70-21.55Q170.79-23.88 170.79-25.61L170.79-25.61L170.79-25.61Q170.79-27.34 170.29-28.48L170.29-28.48L170.29-28.48Q169.78-29.61 168.37-29.61L168.37-29.61L168.37-29.61Q166.95-29.61 166.00-28.73L166.00-28.73L166.00-28.73Q165.06-27.85 164.30-26.14ZM231.52 1.26L231.52 1.26L231.52 1.26Q223.90 1.26 223.90-4.66L223.90-4.66L223.90-4.66Q223.90-7.25 225.00-12.25L225.00-12.25L225.00-12.25Q226.11-17.26 226.48-19.28L226.48-19.28L226.48-19.28Q227.37-23.88 227.37-25.33L227.37-25.33L227.37-25.33Q227.37-28.54 224.97-28.54L224.97-28.54L224.97-28.54Q223.40-28.54 221.89-26.37L221.89-26.37L221.89-26.37Q220.37-24.19 219.68-19.84L219.68-19.84L215.78 0L203.49 1.26L206.89-15.88L206.89-15.88Q207.46-18.71 207.96-21.92L207.96-21.92L207.96-21.92Q208.47-25.14 208.47-25.64L208.47-25.64L208.47-25.64Q208.47-28.54 206.32-28.54L206.32-28.54L206.32-28.54Q204.88-28.54 203.30-26.40L203.30-26.40L203.30-26.40Q201.73-24.25 200.84-19.84L200.84-19.84L197.00 0L184.59 1.26L191.20-32.13L201.47-33.39L200.40-27.03L200.40-27.03Q202.04-30.43 205.06-31.91L205.06-31.91L205.06-31.91Q208.09-33.39 212.81-33.39L212.81-33.39L212.81-33.39Q215.52-33.39 217.29-32.07L217.29-32.07L217.29-32.07Q219.05-30.74 219.62-28.60L219.62-28.60L219.62-28.60Q220.69-30.81 223.43-32.10L223.43-32.10L223.43-32.10Q226.17-33.39 229.54-33.39L229.54-33.39L229.54-33.39Q232.91-33.39 234.58-32.67L234.58-32.67L234.58-32.67Q236.25-31.94 237.26-30.74L237.26-30.74L237.26-30.74Q238.96-28.54 238.96-24.51L238.96-24.51L238.96-24.51Q238.96-20.54 237.26-12.29L237.26-12.29L237.26-12.29Q236.38-8.25 236.38-6.77L236.38-6.77L236.38-6.77Q236.38-5.29 237.23-4.41L237.23-4.41L237.23-4.41Q238.08-3.53 239.34-3.40L239.34-3.40L239.34-3.40Q238.71-1.26 236.53 0L236.53 0L236.53 0Q234.36 1.26 231.52 1.26ZM269.70-10.65L269.70-10.65L269.70-10.65Q271.28-9.58 271.28-7.21L271.28-7.21L271.28-7.21Q271.28-4.85 270.08-3.34L270.08-3.34L270.08-3.34Q268.88-1.83 266.93-0.82L266.93-0.82L266.93-0.82Q262.90 1.26 258.55 1.26L258.55 1.26L258.55 1.26Q254.20 1.26 251.65 0.32L251.65 0.32L251.65 0.32Q249.10-0.63 247.40-2.39L247.40-2.39L247.40-2.39Q244.06-5.73 244.06-11.84L244.06-11.84L244.06-11.84Q244.06-21.36 249.23-27.15L249.23-27.15L249.23-27.15Q254.77-33.39 264.41-33.39L264.41-33.39L264.41-33.39Q270.40-33.39 273.36-30.87L273.36-30.87L273.36-30.87Q275.56-28.98 275.56-25.89L275.56-25.89L275.56-25.89Q275.56-14.80 256.41-14.80L256.41-14.80L256.41-14.80Q256.16-13.17 256.16-11.78L256.16-11.78L256.16-11.78Q256.16-8.88 257.45-7.78L257.45-7.78L257.45-7.78Q258.74-6.68 261.13-6.68L261.13-6.68L261.13-6.68Q263.53-6.68 266.08-7.78L266.08-7.78L266.08-7.78Q268.63-8.88 269.70-10.65ZM256.85-17.51L256.85-17.51L256.85-17.51Q261.32-17.51 263.91-20.29L263.91-20.29L263.91-20.29Q266.49-22.93 266.49-27.15L266.49-27.15L266.49-27.15Q266.49-28.60 265.95-29.39L265.95-29.39L265.95-29.39Q265.42-30.18 264.35-30.18L264.35-30.18L264.35-30.18Q263.28-30.18 262.36-29.77L262.36-29.77L262.36-29.77Q261.45-29.36 260.50-27.97L260.50-27.97L260.50-27.97Q258.17-24.82 256.85-17.51Z" fill="none" stroke="#fff" stroke-width="2.1"></path></g></g></g><style>text {
  font-size: 64px;
  font-family: Arial Black;
  dominant-baseline: central;
  text-anchor: middle;
}</style></svg>