<svg width="201.3474365234375px" height="54.78626708984375px" xmlns="http://www.w3.org/2000/svg" viewBox="149.32628173828124 47.606866455078126 201.3474365234375 54.78626708984375" style="background: rgba(255, 255, 255, 0.6);" preserveAspectRatio="xMidYMid"><defs><filter id="editing-vintage" x="-100%" y="-100%" width="300%" height="300%"><feConvolveMatrix in="SourceGraphic" result="extrude" order="4,4" divisor="1" kernelMatrix="1,0,0,0,0,1,0,0,0,0,1,0,0,0,0,1"> </feConvolveMatrix><feFlood flood-color="#900" result="flood-extrude"></feFlood><feComposite operator="in" in="flood-extrude" in2="extrude" result="extrude-color"></feComposite><feOffset dx="2" dy="2" in="extrude-color" result="extrude-offset"></feOffset><feColorMatrix in="SourceGraphic" result="stroke" type="matrix" values="0 0 0 0 0 0 0 0 0 0 0 0 0 0 0 0 1 0 0 0 "></feColorMatrix><feColorMatrix in="SourceGraphic" result="fill" type="matrix" values="0 0 0 0 0 0 0 0 0 0 0 0 0 0 0 1 0 0 1 0 "></feColorMatrix><feConvolveMatrix in="stroke" result="inner-shadow" order="5,5" divisor="1" kernelMatrix="1 0 0 0 0 0 1 0 0 0 0 0 1 0 0 0 0 0 1 0 0 0 0 0 1 "></feConvolveMatrix><feOffset dx="1" dy="1" in="inner-shadow" result="offset"></feOffset><feComposite operator="in" in="offset" in2="SourceAlpha" result="comp"></feComposite><feFlood flood-color="#ffb7b7" result="flood3"></feFlood><feComposite operator="in" in="flood3" in2="comp" result="comp2"></feComposite><feColorMatrix in="comp2" result="comp3" type="matrix" values="1 0 0 0 0 0 1 0 0 0 0 0 1 0 0 0 0 0 0.5 0 "></feColorMatrix><feFlood flood-color="#f00" result="flood1"></feFlood><feComposite operator="in" in="flood1" in2="fill" result="fill2"></feComposite><feFlood flood-color="#fff" result="flood2"></feFlood><feComposite operator="in" in="flood2" in2="stroke" result="stroke2"></feComposite><feMerge result="obj"><feMergeNode in="extrude-offset"></feMergeNode><feMergeNode in="fill2"></feMergeNode><feMergeNode in="comp3"></feMergeNode></feMerge><feConvolveMatrix in="SourceAlpha" result="shadow" order="4,4" divisor="1" kernelMatrix="1,0,0,0,0,1,0,0,0,0,1,0,0,0,0,1"></feConvolveMatrix><feOffset dx="6" dy="6" in="shadow" result="shadow-offset"></feOffset><feFlood flood-color="#ac9797" result="flood-shadow"></feFlood><feComposite operator="in" in="flood-shadow" in2="shadow-offset" result="shadow-color"></feComposite><feMerge><feMergeNode in="shadow-color"></feMergeNode><feMergeNode in="obj"></feMergeNode></feMerge></filter></defs><g transform="translate(-4,-4)"><g filter="url(#editing-vintage)"><g transform="translate(183.20437562465668, 84.63218688964844)"><path d="M10.10 0L9.47 0L3.99-10.78L3.99 0L1.89 0L1.89-14.70L4.18-14.70L9.78-3.63L15.39-14.70L17.68-14.70L17.68 0L15.59 0L15.59-10.78L10.10 0ZM24.00 4.41L21.99 4.41L24.28-0.98L20.00-10.92L22.12-10.92L25.31-3.40L28.50-10.92L30.62-10.92L24.00 4.41ZM41.32 0L39.22 0L39.22-14.70L47.27-14.70L47.27-14.70Q50.84-14.70 50.84-11.13L50.84-11.13L50.84-9.03L50.84-9.03Q50.84-5.46 47.27-5.46L47.27-5.46L41.32-5.46L41.32 0ZM41.32-12.60L41.32-7.56L47.16-7.56L47.16-7.56Q48.00-7.56 48.37-7.93L48.37-7.93L48.37-7.93Q48.74-8.30 48.74-9.14L48.74-9.14L48.74-11.02L48.74-11.02Q48.74-11.86 48.37-12.23L48.37-12.23L48.37-12.23Q48.00-12.60 47.16-12.60L47.16-12.60L41.32-12.60ZM63.01-8.90L63.01-2.02L63.01-2.02Q63.01-1.60 62.85-1.23L62.85-1.23L62.85-1.23Q62.69-0.86 62.42-0.59L62.42-0.59L62.42-0.59Q62.15-0.32 61.78-0.16L61.78-0.16L61.78-0.16Q61.42 0 61.00 0L61.00 0L55.58 0L55.58 0Q55.17 0 54.80-0.16L54.80-0.16L54.80-0.16Q54.43-0.32 54.16-0.59L54.16-0.59L54.16-0.59Q53.88-0.86 53.73-1.23L53.73-1.23L53.73-1.23Q53.57-1.60 53.57-2.02L53.57-2.02L53.57-8.90L53.57-8.90Q53.57-9.32 53.73-9.69L53.73-9.69L53.73-9.69Q53.88-10.06 54.16-10.33L54.16-10.33L54.16-10.33Q54.43-10.60 54.80-10.76L54.80-10.76L54.80-10.76Q55.17-10.92 55.58-10.92L55.58-10.92L61.00-10.92L61.00-10.92Q61.42-10.92 61.78-10.76L61.78-10.76L61.78-10.76Q62.15-10.60 62.42-10.33L62.42-10.33L62.42-10.33Q62.69-10.06 62.85-9.69L62.85-9.69L62.85-9.69Q63.01-9.32 63.01-8.90L63.01-8.90ZM61.00-8.90L55.58-8.90L55.58-2.02L61.00-2.02L61.00-8.90ZM72.55-8.90L68.38-8.90L68.38 0L66.37 0L66.37-10.92L68.38-10.92L68.38-8.99L68.38-8.99Q68.40-9.39 68.57-9.75L68.57-9.75L68.57-9.75Q68.73-10.10 69.00-10.36L69.00-10.36L69.00-10.36Q69.28-10.62 69.63-10.77L69.63-10.77L69.63-10.77Q69.99-10.92 70.40-10.92L70.40-10.92L72.55-10.92L72.55-10.92Q72.97-10.92 73.33-10.76L73.33-10.76L73.33-10.76Q73.69-10.60 73.97-10.33L73.97-10.33L73.97-10.33Q74.25-10.06 74.41-9.69L74.41-9.69L74.41-9.69Q74.57-9.32 74.57-8.90L74.57-8.90L74.57-7.05L72.55-7.05L72.55-8.90ZM76.44-8.90L76.44-10.92L79.11-10.92L79.11-14.28L81.13-14.28L81.13-10.92L84.72-10.92L84.72-8.90L81.13-8.90L81.13-2.02L84.72-2.02L84.72 0L81.13 0L81.13 0Q80.72 0 80.35-0.16L80.35-0.16L80.35-0.16Q79.98-0.32 79.70-0.59L79.70-0.59L79.70-0.59Q79.43-0.86 79.27-1.23L79.27-1.23L79.27-1.23Q79.11-1.60 79.11-2.02L79.11-2.02L79.11-8.90L76.44-8.90ZM95.72-13.10L92.13-13.10L92.13-10.92L95.72-10.92L95.72-8.90L92.13-8.90L92.13 0L90.11 0L90.11-8.90L87.45-8.90L87.45-10.92L90.11-10.92L90.11-13.10L90.11-13.10Q90.11-13.52 90.27-13.89L90.27-13.89L90.27-13.89Q90.43-14.25 90.71-14.53L90.71-14.53L90.71-14.53Q90.98-14.81 91.35-14.97L91.35-14.97L91.35-14.97Q91.72-15.12 92.13-15.12L92.13-15.12L95.72-15.12L95.72-13.10ZM107.90-8.90L107.90-2.02L107.90-2.02Q107.90-1.60 107.74-1.23L107.74-1.23L107.74-1.23Q107.58-0.86 107.31-0.59L107.31-0.59L107.31-0.59Q107.04-0.32 106.68-0.16L106.68-0.16L106.68-0.16Q106.31 0 105.89 0L105.89 0L100.47 0L100.47 0Q100.06 0 99.69-0.16L99.69-0.16L99.69-0.16Q99.32-0.32 99.05-0.59L99.05-0.59L99.05-0.59Q98.78-0.86 98.62-1.23L98.62-1.23L98.62-1.23Q98.46-1.60 98.46-2.02L98.46-2.02L98.46-8.90L98.46-8.90Q98.46-9.32 98.62-9.69L98.62-9.69L98.62-9.69Q98.78-10.06 99.05-10.33L99.05-10.33L99.05-10.33Q99.32-10.60 99.69-10.76L99.69-10.76L99.69-10.76Q100.06-10.92 100.47-10.92L100.47-10.92L105.89-10.92L105.89-10.92Q106.31-10.92 106.68-10.76L106.68-10.76L106.68-10.76Q107.04-10.60 107.31-10.33L107.31-10.33L107.31-10.33Q107.58-10.06 107.74-9.69L107.74-9.69L107.74-9.69Q107.90-9.32 107.90-8.90L107.90-8.90ZM105.89-8.90L100.47-8.90L100.47-2.02L105.89-2.02L105.89-8.90ZM111.27-15.12L113.27-15.12L113.27 0L111.27 0L111.27-15.12ZM116.74-10.92L118.76-10.92L118.76 0L116.74 0L116.74-10.92ZM116.64-13.02L116.64-15.12L118.86-15.12L118.86-13.02L116.64-13.02ZM131.67-8.90L131.67-2.02L131.67-2.02Q131.67-1.60 131.51-1.23L131.51-1.23L131.51-1.23Q131.35-0.86 131.08-0.59L131.08-0.59L131.08-0.59Q130.81-0.32 130.45-0.16L130.45-0.16L130.45-0.16Q130.08 0 129.66 0L129.66 0L124.24 0L124.24 0Q123.83 0 123.46-0.16L123.46-0.16L123.46-0.16Q123.09-0.32 122.82-0.59L122.82-0.59L122.82-0.59Q122.54-0.86 122.39-1.23L122.39-1.23L122.39-1.23Q122.23-1.60 122.23-2.02L122.23-2.02L122.23-8.90L122.23-8.90Q122.23-9.32 122.39-9.69L122.39-9.69L122.39-9.69Q122.54-10.06 122.82-10.33L122.82-10.33L122.82-10.33Q123.09-10.60 123.46-10.76L123.46-10.76L123.46-10.76Q123.83-10.92 124.24-10.92L124.24-10.92L129.66-10.92L129.66-10.92Q130.08-10.92 130.45-10.76L130.45-10.76L130.45-10.76Q130.81-10.60 131.08-10.33L131.08-10.33L131.08-10.33Q131.35-10.06 131.51-9.69L131.51-9.69L131.51-9.69Q131.67-9.32 131.67-8.90L131.67-8.90ZM129.66-8.90L124.24-8.90L124.24-2.02L129.66-2.02L129.66-8.90Z" fill="#f00" stroke="#0f0" stroke-width="1.8"></path></g></g><g><g transform="translate(183.21218812465668, 84.74937438964844)"><path d="M10.10 0L9.47 0L3.99-10.78L3.99 0L1.89 0L1.89-14.70L4.18-14.70L9.78-3.63L15.39-14.70L17.68-14.70L17.68 0L15.59 0L15.59-10.78L10.10 0ZM24.00 4.41L21.99 4.41L24.28-0.98L20.00-10.92L22.12-10.92L25.31-3.40L28.50-10.92L30.62-10.92L24.00 4.41ZM41.32 0L39.22 0L39.22-14.70L47.27-14.70L47.27-14.70Q50.84-14.70 50.84-11.13L50.84-11.13L50.84-9.03L50.84-9.03Q50.84-5.46 47.27-5.46L47.27-5.46L41.32-5.46L41.32 0ZM41.32-12.60L41.32-7.56L47.16-7.56L47.16-7.56Q48.00-7.56 48.37-7.93L48.37-7.93L48.37-7.93Q48.74-8.30 48.74-9.14L48.74-9.14L48.74-11.02L48.74-11.02Q48.74-11.86 48.37-12.23L48.37-12.23L48.37-12.23Q48.00-12.60 47.16-12.60L47.16-12.60L41.32-12.60ZM63.01-8.90L63.01-2.02L63.01-2.02Q63.01-1.60 62.85-1.23L62.85-1.23L62.85-1.23Q62.69-0.86 62.42-0.59L62.42-0.59L62.42-0.59Q62.15-0.32 61.78-0.16L61.78-0.16L61.78-0.16Q61.42 0 61.00 0L61.00 0L55.58 0L55.58 0Q55.17 0 54.80-0.16L54.80-0.16L54.80-0.16Q54.43-0.32 54.16-0.59L54.16-0.59L54.16-0.59Q53.88-0.86 53.73-1.23L53.73-1.23L53.73-1.23Q53.57-1.60 53.57-2.02L53.57-2.02L53.57-8.90L53.57-8.90Q53.57-9.32 53.73-9.69L53.73-9.69L53.73-9.69Q53.88-10.06 54.16-10.33L54.16-10.33L54.16-10.33Q54.43-10.60 54.80-10.76L54.80-10.76L54.80-10.76Q55.17-10.92 55.58-10.92L55.58-10.92L61.00-10.92L61.00-10.92Q61.42-10.92 61.78-10.76L61.78-10.76L61.78-10.76Q62.15-10.60 62.42-10.33L62.42-10.33L62.42-10.33Q62.69-10.06 62.85-9.69L62.85-9.69L62.85-9.69Q63.01-9.32 63.01-8.90L63.01-8.90ZM61.00-8.90L55.58-8.90L55.58-2.02L61.00-2.02L61.00-8.90ZM72.55-8.90L68.38-8.90L68.38 0L66.37 0L66.37-10.92L68.38-10.92L68.38-8.99L68.38-8.99Q68.40-9.39 68.57-9.75L68.57-9.75L68.57-9.75Q68.73-10.10 69.00-10.36L69.00-10.36L69.00-10.36Q69.28-10.62 69.63-10.77L69.63-10.77L69.63-10.77Q69.99-10.92 70.40-10.92L70.40-10.92L72.55-10.92L72.55-10.92Q72.97-10.92 73.33-10.76L73.33-10.76L73.33-10.76Q73.69-10.60 73.97-10.33L73.97-10.33L73.97-10.33Q74.25-10.06 74.41-9.69L74.41-9.69L74.41-9.69Q74.57-9.32 74.57-8.90L74.57-8.90L74.57-7.05L72.55-7.05L72.55-8.90ZM76.44-8.90L76.44-10.92L79.11-10.92L79.11-14.28L81.13-14.28L81.13-10.92L84.72-10.92L84.72-8.90L81.13-8.90L81.13-2.02L84.72-2.02L84.72 0L81.13 0L81.13 0Q80.72 0 80.35-0.16L80.35-0.16L80.35-0.16Q79.98-0.32 79.70-0.59L79.70-0.59L79.70-0.59Q79.43-0.86 79.27-1.23L79.27-1.23L79.27-1.23Q79.11-1.60 79.11-2.02L79.11-2.02L79.11-8.90L76.44-8.90ZM95.72-13.10L92.13-13.10L92.13-10.92L95.72-10.92L95.72-8.90L92.13-8.90L92.13 0L90.11 0L90.11-8.90L87.45-8.90L87.45-10.92L90.11-10.92L90.11-13.10L90.11-13.10Q90.11-13.52 90.27-13.89L90.27-13.89L90.27-13.89Q90.43-14.25 90.71-14.53L90.71-14.53L90.71-14.53Q90.98-14.81 91.35-14.97L91.35-14.97L91.35-14.97Q91.72-15.12 92.13-15.12L92.13-15.12L95.72-15.12L95.72-13.10ZM107.90-8.90L107.90-2.02L107.90-2.02Q107.90-1.60 107.74-1.23L107.74-1.23L107.74-1.23Q107.58-0.86 107.31-0.59L107.31-0.59L107.31-0.59Q107.04-0.32 106.68-0.16L106.68-0.16L106.68-0.16Q106.31 0 105.89 0L105.89 0L100.47 0L100.47 0Q100.06 0 99.69-0.16L99.69-0.16L99.69-0.16Q99.32-0.32 99.05-0.59L99.05-0.59L99.05-0.59Q98.78-0.86 98.62-1.23L98.62-1.23L98.62-1.23Q98.46-1.60 98.46-2.02L98.46-2.02L98.46-8.90L98.46-8.90Q98.46-9.32 98.62-9.69L98.62-9.69L98.62-9.69Q98.78-10.06 99.05-10.33L99.05-10.33L99.05-10.33Q99.32-10.60 99.69-10.76L99.69-10.76L99.69-10.76Q100.06-10.92 100.47-10.92L100.47-10.92L105.89-10.92L105.89-10.92Q106.31-10.92 106.68-10.76L106.68-10.76L106.68-10.76Q107.04-10.60 107.31-10.33L107.31-10.33L107.31-10.33Q107.58-10.06 107.74-9.69L107.74-9.69L107.74-9.69Q107.90-9.32 107.90-8.90L107.90-8.90ZM105.89-8.90L100.47-8.90L100.47-2.02L105.89-2.02L105.89-8.90ZM111.27-15.12L113.27-15.12L113.27 0L111.27 0L111.27-15.12ZM116.74-10.92L118.76-10.92L118.76 0L116.74 0L116.74-10.92ZM116.64-13.02L116.64-15.12L118.86-15.12L118.86-13.02L116.64-13.02ZM131.67-8.90L131.67-2.02L131.67-2.02Q131.67-1.60 131.51-1.23L131.51-1.23L131.51-1.23Q131.35-0.86 131.08-0.59L131.08-0.59L131.08-0.59Q130.81-0.32 130.45-0.16L130.45-0.16L130.45-0.16Q130.08 0 129.66 0L129.66 0L124.24 0L124.24 0Q123.83 0 123.46-0.16L123.46-0.16L123.46-0.16Q123.09-0.32 122.82-0.59L122.82-0.59L122.82-0.59Q122.54-0.86 122.39-1.23L122.39-1.23L122.39-1.23Q122.23-1.60 122.23-2.02L122.23-2.02L122.23-8.90L122.23-8.90Q122.23-9.32 122.39-9.69L122.39-9.69L122.39-9.69Q122.54-10.06 122.82-10.33L122.82-10.33L122.82-10.33Q123.09-10.60 123.46-10.76L123.46-10.76L123.46-10.76Q123.83-10.92 124.24-10.92L124.24-10.92L129.66-10.92L129.66-10.92Q130.08-10.92 130.45-10.76L130.45-10.76L130.45-10.76Q130.81-10.60 131.08-10.33L131.08-10.33L131.08-10.33Q131.35-10.06 131.51-9.69L131.51-9.69L131.51-9.69Q131.67-9.32 131.67-8.90L131.67-8.90ZM129.66-8.90L124.24-8.90L124.24-2.02L129.66-2.02L129.66-8.90Z" fill="none" stroke="#ffffff" stroke-width="2.1"></path></g></g></g><style>text {
  font-size: 25px;
  font-family: Arial Black;
  dominant-baseline: central;
  text-anchor: middle;
}</style></svg>