<svg width="149.476220703125px" height="54.78626708984375px" xmlns="http://www.w3.org/2000/svg" viewBox="175.2618896484375 47.606866455078126 149.476220703125 54.78626708984375" style="background: rgb(255, 255, 255);" preserveAspectRatio="xMidYMid"><defs><filter id="editing-vintage" x="-100%" y="-100%" width="300%" height="300%"><feConvolveMatrix in="SourceGraphic" result="extrude" order="4,4" divisor="1" kernelMatrix="1,0,0,0,0,1,0,0,0,0,1,0,0,0,0,1"> </feConvolveMatrix><feFlood flood-color="#900" result="flood-extrude"></feFlood><feComposite operator="in" in="flood-extrude" in2="extrude" result="extrude-color"></feComposite><feOffset dx="2" dy="2" in="extrude-color" result="extrude-offset"></feOffset><feColorMatrix in="SourceGraphic" result="stroke" type="matrix" values="0 0 0 0 0 0 0 0 0 0 0 0 0 0 0 0 1 0 0 0 "></feColorMatrix><feColorMatrix in="SourceGraphic" result="fill" type="matrix" values="0 0 0 0 0 0 0 0 0 0 0 0 0 0 0 1 0 0 1 0 "></feColorMatrix><feConvolveMatrix in="stroke" result="inner-shadow" order="5,5" divisor="1" kernelMatrix="1 0 0 0 0 0 1 0 0 0 0 0 1 0 0 0 0 0 1 0 0 0 0 0 1 "></feConvolveMatrix><feOffset dx="1" dy="1" in="inner-shadow" result="offset"></feOffset><feComposite operator="in" in="offset" in2="SourceAlpha" result="comp"></feComposite><feFlood flood-color="#ffb7b7" result="flood3"></feFlood><feComposite operator="in" in="flood3" in2="comp" result="comp2"></feComposite><feColorMatrix in="comp2" result="comp3" type="matrix" values="1 0 0 0 0 0 1 0 0 0 0 0 1 0 0 0 0 0 0.5 0 "></feColorMatrix><feFlood flood-color="#f00" result="flood1"></feFlood><feComposite operator="in" in="flood1" in2="fill" result="fill2"></feComposite><feFlood flood-color="#fff" result="flood2"></feFlood><feComposite operator="in" in="flood2" in2="stroke" result="stroke2"></feComposite><feMerge result="obj"><feMergeNode in="extrude-offset"></feMergeNode><feMergeNode in="fill2"></feMergeNode><feMergeNode in="comp3"></feMergeNode></feMerge><feConvolveMatrix in="SourceAlpha" result="shadow" order="4,4" divisor="1" kernelMatrix="1,0,0,0,0,1,0,0,0,0,1,0,0,0,0,1"></feConvolveMatrix><feOffset dx="6" dy="6" in="shadow" result="shadow-offset"></feOffset><feFlood flood-color="#ac9797" result="flood-shadow"></feFlood><feComposite operator="in" in="flood-shadow" in2="shadow-offset" result="shadow-color"></feComposite><feMerge><feMergeNode in="shadow-color"></feMergeNode><feMergeNode in="obj"></feMergeNode></feMerge></filter></defs><g transform="translate(-4,-4)"><g filter="url(#editing-vintage)"><g transform="translate(203.22218430042267, 82.42718744277954)"><path d="M7.14 0L4.83 0L0.63-14.70L2.73-14.70L5.99-3.00L9.24-14.70L11.34-14.70L14.59-3.00L17.85-14.70L19.95-14.70L15.75 0L13.44 0L10.29-11.02L7.14 0ZM30.87-8.90L30.87-4.43L23.65-4.43L23.65-2.02L30.87-2.02L30.87 0L23.65 0L23.65 0Q23.24 0 22.87-0.16L22.87-0.16L22.87-0.16Q22.50-0.32 22.23-0.59L22.23-0.59L22.23-0.59Q21.95-0.86 21.79-1.23L21.79-1.23L21.79-1.23Q21.64-1.60 21.64-2.02L21.64-2.02L21.64-8.90L21.64-8.90Q21.64-9.32 21.79-9.69L21.79-9.69L21.79-9.69Q21.95-10.06 22.23-10.33L22.23-10.33L22.23-10.33Q22.50-10.60 22.87-10.76L22.87-10.76L22.87-10.76Q23.24-10.92 23.65-10.92L23.65-10.92L28.85-10.92L28.85-10.92Q29.27-10.92 29.64-10.76L29.64-10.76L29.64-10.76Q30.01-10.60 30.28-10.33L30.28-10.33L30.28-10.33Q30.56-10.06 30.72-9.69L30.72-9.69L30.72-9.69Q30.87-9.32 30.87-8.90L30.87-8.90ZM28.85-8.90L23.65-8.90L23.65-6.45L28.85-6.45L28.85-8.90ZM34.24-15.12L36.25-15.12L36.25 0L34.24 0L34.24-15.12ZM46.83-8.90L41.62-8.90L41.62-2.02L46.83-2.02L46.83-3.87L48.85-3.87L48.85-2.02L48.85-2.02Q48.85-1.60 48.69-1.23L48.69-1.23L48.69-1.23Q48.53-0.86 48.26-0.59L48.26-0.59L48.26-0.59Q47.99-0.32 47.62-0.16L47.62-0.16L47.62-0.16Q47.25 0 46.83 0L46.83 0L41.62 0L41.62 0Q41.21 0 40.84-0.16L40.84-0.16L40.84-0.16Q40.47-0.32 40.20-0.59L40.20-0.59L40.20-0.59Q39.93-0.86 39.77-1.23L39.77-1.23L39.77-1.23Q39.61-1.60 39.61-2.02L39.61-2.02L39.61-8.90L39.61-8.90Q39.61-9.32 39.77-9.69L39.77-9.69L39.77-9.69Q39.93-10.06 40.20-10.33L40.20-10.33L40.20-10.33Q40.47-10.60 40.84-10.76L40.84-10.76L40.84-10.76Q41.21-10.92 41.62-10.92L41.62-10.92L46.83-10.92L46.83-10.92Q47.25-10.92 47.62-10.76L47.62-10.76L47.62-10.76Q47.99-10.60 48.26-10.33L48.26-10.33L48.26-10.33Q48.53-10.06 48.69-9.69L48.69-9.69L48.69-9.69Q48.85-9.32 48.85-8.90L48.85-8.90L48.85-7.05L46.83-7.05L46.83-8.90ZM61.66-8.90L61.66-2.02L61.66-2.02Q61.66-1.60 61.50-1.23L61.50-1.23L61.50-1.23Q61.34-0.86 61.07-0.59L61.07-0.59L61.07-0.59Q60.80-0.32 60.43-0.16L60.43-0.16L60.43-0.16Q60.07 0 59.65 0L59.65 0L54.22 0L54.22 0Q53.81 0 53.44-0.16L53.44-0.16L53.44-0.16Q53.07-0.32 52.80-0.59L52.80-0.59L52.80-0.59Q52.53-0.86 52.37-1.23L52.37-1.23L52.37-1.23Q52.21-1.60 52.21-2.02L52.21-2.02L52.21-8.90L52.21-8.90Q52.21-9.32 52.37-9.69L52.37-9.69L52.37-9.69Q52.53-10.06 52.80-10.33L52.80-10.33L52.80-10.33Q53.07-10.60 53.44-10.76L53.44-10.76L53.44-10.76Q53.81-10.92 54.22-10.92L54.22-10.92L59.65-10.92L59.65-10.92Q60.07-10.92 60.43-10.76L60.43-10.76L60.43-10.76Q60.80-10.60 61.07-10.33L61.07-10.33L61.07-10.33Q61.34-10.06 61.50-9.69L61.50-9.69L61.50-9.69Q61.66-9.32 61.66-8.90L61.66-8.90ZM59.65-8.90L54.22-8.90L54.22-2.02L59.65-2.02L59.65-8.90ZM78.29-8.90L73.67-8.90L73.67 0L71.65 0L71.65-8.90L67.03-8.90L67.03 0L65.02 0L65.02-10.92L67.03-10.92L67.03-8.99L67.03-8.99Q67.05-9.39 67.21-9.75L67.21-9.75L67.21-9.75Q67.38-10.10 67.65-10.36L67.65-10.36L67.65-10.36Q67.92-10.62 68.28-10.77L68.28-10.77L68.28-10.77Q68.64-10.92 69.05-10.92L69.05-10.92L71.65-10.92L71.65-10.92Q72.05-10.92 72.41-10.77L72.41-10.77L72.41-10.77Q72.77-10.62 73.05-10.36L73.05-10.36L73.05-10.36Q73.33-10.10 73.49-9.75L73.49-9.75L73.49-9.75Q73.66-9.39 73.67-8.99L73.67-8.99L73.67-8.99Q73.69-9.39 73.85-9.75L73.85-9.75L73.85-9.75Q74.01-10.10 74.28-10.36L74.28-10.36L74.28-10.36Q74.56-10.62 74.92-10.77L74.92-10.77L74.92-10.77Q75.27-10.92 75.68-10.92L75.68-10.92L78.29-10.92L78.29-10.92Q78.71-10.92 79.08-10.76L79.08-10.76L79.08-10.76Q79.45-10.60 79.72-10.33L79.72-10.33L79.72-10.33Q79.99-10.06 80.15-9.69L80.15-9.69L80.15-9.69Q80.31-9.32 80.31-8.90L80.31-8.90L80.31 0L78.29 0L78.29-8.90ZM92.91-8.90L92.91-4.43L85.68-4.43L85.68-2.02L92.91-2.02L92.91 0L85.68 0L85.68 0Q85.27 0 84.90-0.16L84.90-0.16L84.90-0.16Q84.53-0.32 84.26-0.59L84.26-0.59L84.26-0.59Q83.99-0.86 83.83-1.23L83.83-1.23L83.83-1.23Q83.67-1.60 83.67-2.02L83.67-2.02L83.67-8.90L83.67-8.90Q83.67-9.32 83.83-9.69L83.83-9.69L83.83-9.69Q83.99-10.06 84.26-10.33L84.26-10.33L84.26-10.33Q84.53-10.60 84.90-10.76L84.90-10.76L84.90-10.76Q85.27-10.92 85.68-10.92L85.68-10.92L90.89-10.92L90.89-10.92Q91.31-10.92 91.68-10.76L91.68-10.76L91.68-10.76Q92.05-10.60 92.32-10.33L92.32-10.33L92.32-10.33Q92.59-10.06 92.75-9.69L92.75-9.69L92.75-9.69Q92.91-9.32 92.91-8.90L92.91-8.90ZM90.89-8.90L85.68-8.90L85.68-6.45L90.89-6.45L90.89-8.90Z" fill="#f00" stroke="#0f0" stroke-width="1.8"></path></g></g><g><g transform="translate(203.22218430042267, 82.54437494277954)"><path d="M7.14 0L4.83 0L0.63-14.70L2.73-14.70L5.99-3.00L9.24-14.70L11.34-14.70L14.59-3.00L17.85-14.70L19.95-14.70L15.75 0L13.44 0L10.29-11.02L7.14 0ZM30.87-8.90L30.87-4.43L23.65-4.43L23.65-2.02L30.87-2.02L30.87 0L23.65 0L23.65 0Q23.24 0 22.87-0.16L22.87-0.16L22.87-0.16Q22.50-0.32 22.23-0.59L22.23-0.59L22.23-0.59Q21.95-0.86 21.79-1.23L21.79-1.23L21.79-1.23Q21.64-1.60 21.64-2.02L21.64-2.02L21.64-8.90L21.64-8.90Q21.64-9.32 21.79-9.69L21.79-9.69L21.79-9.69Q21.95-10.06 22.23-10.33L22.23-10.33L22.23-10.33Q22.50-10.60 22.87-10.76L22.87-10.76L22.87-10.76Q23.24-10.92 23.65-10.92L23.65-10.92L28.85-10.92L28.85-10.92Q29.27-10.92 29.64-10.76L29.64-10.76L29.64-10.76Q30.01-10.60 30.28-10.33L30.28-10.33L30.28-10.33Q30.56-10.06 30.72-9.69L30.72-9.69L30.72-9.69Q30.87-9.32 30.87-8.90L30.87-8.90ZM28.85-8.90L23.65-8.90L23.65-6.45L28.85-6.45L28.85-8.90ZM34.24-15.12L36.25-15.12L36.25 0L34.24 0L34.24-15.12ZM46.83-8.90L41.62-8.90L41.62-2.02L46.83-2.02L46.83-3.87L48.85-3.87L48.85-2.02L48.85-2.02Q48.85-1.60 48.69-1.23L48.69-1.23L48.69-1.23Q48.53-0.86 48.26-0.59L48.26-0.59L48.26-0.59Q47.99-0.32 47.62-0.16L47.62-0.16L47.62-0.16Q47.25 0 46.83 0L46.83 0L41.62 0L41.62 0Q41.21 0 40.84-0.16L40.84-0.16L40.84-0.16Q40.47-0.32 40.20-0.59L40.20-0.59L40.20-0.59Q39.93-0.86 39.77-1.23L39.77-1.23L39.77-1.23Q39.61-1.60 39.61-2.02L39.61-2.02L39.61-8.90L39.61-8.90Q39.61-9.32 39.77-9.69L39.77-9.69L39.77-9.69Q39.93-10.06 40.20-10.33L40.20-10.33L40.20-10.33Q40.47-10.60 40.84-10.76L40.84-10.76L40.84-10.76Q41.21-10.92 41.62-10.92L41.62-10.92L46.83-10.92L46.83-10.92Q47.25-10.92 47.62-10.76L47.62-10.76L47.62-10.76Q47.99-10.60 48.26-10.33L48.26-10.33L48.26-10.33Q48.53-10.06 48.69-9.69L48.69-9.69L48.69-9.69Q48.85-9.32 48.85-8.90L48.85-8.90L48.85-7.05L46.83-7.05L46.83-8.90ZM61.66-8.90L61.66-2.02L61.66-2.02Q61.66-1.60 61.50-1.23L61.50-1.23L61.50-1.23Q61.34-0.86 61.07-0.59L61.07-0.59L61.07-0.59Q60.80-0.32 60.43-0.16L60.43-0.16L60.43-0.16Q60.07 0 59.65 0L59.65 0L54.22 0L54.22 0Q53.81 0 53.44-0.16L53.44-0.16L53.44-0.16Q53.07-0.32 52.80-0.59L52.80-0.59L52.80-0.59Q52.53-0.86 52.37-1.23L52.37-1.23L52.37-1.23Q52.21-1.60 52.21-2.02L52.21-2.02L52.21-8.90L52.21-8.90Q52.21-9.32 52.37-9.69L52.37-9.69L52.37-9.69Q52.53-10.06 52.80-10.33L52.80-10.33L52.80-10.33Q53.07-10.60 53.44-10.76L53.44-10.76L53.44-10.76Q53.81-10.92 54.22-10.92L54.22-10.92L59.65-10.92L59.65-10.92Q60.07-10.92 60.43-10.76L60.43-10.76L60.43-10.76Q60.80-10.60 61.07-10.33L61.07-10.33L61.07-10.33Q61.34-10.06 61.50-9.69L61.50-9.69L61.50-9.69Q61.66-9.32 61.66-8.90L61.66-8.90ZM59.65-8.90L54.22-8.90L54.22-2.02L59.65-2.02L59.65-8.90ZM78.29-8.90L73.67-8.90L73.67 0L71.65 0L71.65-8.90L67.03-8.90L67.03 0L65.02 0L65.02-10.92L67.03-10.92L67.03-8.99L67.03-8.99Q67.05-9.39 67.21-9.75L67.21-9.75L67.21-9.75Q67.38-10.10 67.65-10.36L67.65-10.36L67.65-10.36Q67.92-10.62 68.28-10.77L68.28-10.77L68.28-10.77Q68.64-10.92 69.05-10.92L69.05-10.92L71.65-10.92L71.65-10.92Q72.05-10.92 72.41-10.77L72.41-10.77L72.41-10.77Q72.77-10.62 73.05-10.36L73.05-10.36L73.05-10.36Q73.33-10.10 73.49-9.75L73.49-9.75L73.49-9.75Q73.66-9.39 73.67-8.99L73.67-8.99L73.67-8.99Q73.69-9.39 73.85-9.75L73.85-9.75L73.85-9.75Q74.01-10.10 74.28-10.36L74.28-10.36L74.28-10.36Q74.56-10.62 74.92-10.77L74.92-10.77L74.92-10.77Q75.27-10.92 75.68-10.92L75.68-10.92L78.29-10.92L78.29-10.92Q78.71-10.92 79.08-10.76L79.08-10.76L79.08-10.76Q79.45-10.60 79.72-10.33L79.72-10.33L79.72-10.33Q79.99-10.06 80.15-9.69L80.15-9.69L80.15-9.69Q80.31-9.32 80.31-8.90L80.31-8.90L80.31 0L78.29 0L78.29-8.90ZM92.91-8.90L92.91-4.43L85.68-4.43L85.68-2.02L92.91-2.02L92.91 0L85.68 0L85.68 0Q85.27 0 84.90-0.16L84.90-0.16L84.90-0.16Q84.53-0.32 84.26-0.59L84.26-0.59L84.26-0.59Q83.99-0.86 83.83-1.23L83.83-1.23L83.83-1.23Q83.67-1.60 83.67-2.02L83.67-2.02L83.67-8.90L83.67-8.90Q83.67-9.32 83.83-9.69L83.83-9.69L83.83-9.69Q83.99-10.06 84.26-10.33L84.26-10.33L84.26-10.33Q84.53-10.60 84.90-10.76L84.90-10.76L84.90-10.76Q85.27-10.92 85.68-10.92L85.68-10.92L90.89-10.92L90.89-10.92Q91.31-10.92 91.68-10.76L91.68-10.76L91.68-10.76Q92.05-10.60 92.32-10.33L92.32-10.33L92.32-10.33Q92.59-10.06 92.75-9.69L92.75-9.69L92.75-9.69Q92.91-9.32 92.91-8.90L92.91-8.90ZM90.89-8.90L85.68-8.90L85.68-6.45L90.89-6.45L90.89-8.90Z" fill="none" stroke="#ffffff" stroke-width="2.1"></path></g></g></g><style>text {
  font-size: 25px;
  font-family: Arial Black;
  dominant-baseline: central;
  text-anchor: middle;
}</style></svg>